<svg width="900" height="399" viewBox="0 0 900 399" fill="none" xmlns="http://www.w3.org/2000/svg">
<path d="M565.997 137.572H539.699V331.353H565.997V137.572Z" fill="url(#paint0_linear_21_216)"/>
<path d="M642.487 13.6505H605.438V335.304H642.487V13.6505Z" fill="url(#paint1_linear_21_216)"/>
<path d="M673.884 314.207H508.291C497.581 314.207 488.898 322.892 488.898 333.604V339.632C488.898 350.344 497.581 359.029 508.291 359.029H673.884C684.593 359.029 693.275 350.344 693.275 339.632V333.604C693.275 322.892 684.593 314.207 673.884 314.207Z" fill="#241D50"/>
<path d="M484.149 181.068H698.034C698.823 181.068 699.604 181.224 700.332 181.525C701.06 181.827 701.721 182.269 702.279 182.827C702.837 183.384 703.278 184.046 703.581 184.775C703.882 185.504 704.037 186.284 704.037 187.072V197.486C704.037 199.075 703.406 200.6 702.283 201.723C701.159 202.848 699.635 203.479 698.047 203.479H484.137C482.549 203.479 481.025 202.848 479.901 201.723C478.778 200.6 478.146 199.075 478.146 197.486V187.072C478.146 186.284 478.302 185.504 478.603 184.775C478.905 184.046 479.347 183.384 479.904 182.827C480.462 182.269 481.124 181.827 481.852 181.525C482.58 181.224 483.361 181.068 484.149 181.068Z" fill="url(#paint2_linear_21_216)"/>
<path d="M676.955 0H571.999C566.327 0 561.729 4.5994 561.729 10.2731V13.4511C561.729 19.1247 566.327 23.7242 571.999 23.7242H676.955C682.627 23.7242 687.225 19.1247 687.225 13.4511V10.2731C687.225 4.5994 682.627 0 676.955 0Z" fill="#241D50"/>
<path d="M577.182 122.115C577.201 127.394 575.796 132.58 573.113 137.126H531.457C528.78 132.578 527.375 127.393 527.389 122.115C527.389 106.952 538.527 94.6501 552.279 94.6501C566.032 94.6501 577.182 106.952 577.182 122.115Z" fill="#353063"/>
<path d="M580.078 70.9144H523.028C520.178 70.9144 517.354 71.4767 514.721 72.5695C512.088 73.6622 509.696 75.2632 507.682 77.2818C505.669 79.3004 504.073 81.6965 502.986 84.3325C501.9 86.9684 501.344 89.7936 501.35 92.6451V117.835C501.35 123.586 503.634 129.101 507.7 133.167C511.765 137.234 517.279 139.519 523.028 139.519H580.078C585.828 139.519 591.342 137.234 595.407 133.167C599.472 129.101 601.756 123.586 601.756 117.835V92.6451C601.763 89.7936 601.206 86.9684 600.119 84.3325C599.033 81.6965 597.437 79.3004 595.424 77.2818C593.41 75.2632 591.018 73.6622 588.385 72.5695C585.752 71.4767 582.929 70.9144 580.078 70.9144ZM573.114 137.126H531.458C528.781 132.578 527.376 127.393 527.39 122.115C527.39 106.952 538.528 94.6501 552.28 94.6501C566.033 94.6501 577.183 106.952 577.183 122.115C577.202 127.394 575.797 132.58 573.114 137.126Z" fill="#241D50"/>
<path d="M800.073 295.117C801.121 291.655 798.997 273.154 757.097 264.61C715.197 256.067 668.266 249.614 637.852 254.818C602.394 260.949 599.173 290.235 603.47 302.441C607.767 314.646 789.328 330.478 800.073 295.117Z" fill="url(#paint3_linear_21_216)"/>
<path d="M652.098 276.673C685.091 282.755 736.297 308.693 773.566 290.521C823.255 266.288 815.53 341.298 793.44 352.84C771.35 364.382 629.929 367.373 612.35 355.146C595.782 343.604 593.217 302.255 605.701 282.441C614.644 268.301 644.281 275.231 652.098 276.673Z" fill="url(#paint4_linear_21_216)"/>
<path d="M721.76 243.496L721.76 243.496C731.52 242.665 743.293 246.519 751.119 253.271C755.026 256.641 757.922 260.711 759.113 265.249C760.3 269.775 759.803 274.811 756.846 280.157C750.948 290.82 738.744 294.937 724.984 294.948C711.239 294.96 696.087 290.867 684.539 285.288C673.045 279.735 665.996 271.038 662.878 263.661C661.316 259.965 660.757 256.641 661.081 254.227C661.242 253.023 661.62 252.076 662.169 251.415C662.711 250.765 663.44 250.365 664.38 250.276L664.39 250.275L664.401 250.274L664.333 249.778C664.401 250.274 664.401 250.274 664.401 250.274L664.402 250.274L664.407 250.273L664.428 250.27L664.509 250.259L664.827 250.216C665.107 250.178 665.52 250.123 666.053 250.051C667.119 249.909 668.664 249.703 670.58 249.45C674.412 248.946 679.728 248.256 685.662 247.513C697.532 246.027 711.87 244.333 721.76 243.496Z" fill="white" stroke="#D7D7D7"/>
<path d="M745.697 338.686C724.284 333.083 757.754 307.052 760.982 282.298C764.21 257.544 747.18 261.891 747.18 261.891C761.324 278.943 728.082 306.017 718.733 322.84C709.384 339.664 735.201 355.217 751.59 355.388C767.98 355.56 767.118 344.289 745.697 338.686Z" fill="white"/>
<path d="M664.733 320.413C675.657 326.48 666.514 293.468 680.631 287.38C690.828 282.976 681.643 269.807 681.643 269.807C681.643 269.807 639.742 306.538 664.733 320.413Z" fill="white"/>
<path d="M684.857 231.723C684.924 231.872 684.97 231.983 684.998 232.058L684.955 232.251L685.2 232.446C691.36 237.363 694.054 242.356 694.5 247.089C694.947 251.832 693.147 256.414 690.12 260.522C687.094 264.629 682.866 268.226 678.536 270.974C674.213 273.717 669.824 275.593 666.479 276.293C658.308 277.17 652.984 276.594 649.31 275.275C645.652 273.961 643.589 271.897 641.961 269.695L641.961 269.695C640.041 267.102 639.238 265.516 638.911 264.603C638.748 264.148 638.708 263.871 638.7 263.728C638.698 263.674 638.7 263.64 638.701 263.622L638.794 263.398L638.626 263.171L630.88 252.707L630.88 252.707L630.877 252.703C630.735 252.515 630.643 252.292 630.611 252.057C630.578 251.823 630.606 251.584 630.692 251.362C630.778 251.142 630.918 250.946 631.1 250.795L631.101 250.795C631.282 250.644 631.499 250.542 631.732 250.498C633.839 250.106 636.715 249.598 639.19 249.277C640.429 249.116 641.555 249.004 642.429 248.975C642.866 248.96 643.228 248.967 643.502 248.996C643.639 249.011 643.745 249.03 643.823 249.051C643.905 249.073 643.933 249.091 643.931 249.09L644.433 249.438L644.676 248.878C646.564 244.524 650.425 241.264 654.296 238.943C658.159 236.627 661.974 235.281 663.688 234.73L663.857 234.675L663.954 234.526L675.099 217.396L675.1 217.394C675.228 217.196 675.406 217.034 675.616 216.924C675.826 216.815 676.06 216.763 676.296 216.773L676.296 216.773C676.533 216.782 676.761 216.853 676.962 216.979L676.963 216.979C677.162 217.104 677.327 217.279 677.439 217.488C678.739 219.918 680.666 223.529 682.257 226.576C683.053 228.101 683.764 229.481 684.27 230.5C684.523 231.011 684.723 231.427 684.857 231.723Z" fill="white" stroke="#D7D7D7"/>
<path d="M673.341 256.352C673.273 256.343 673.204 256.348 673.138 256.366C673.072 256.384 673.01 256.416 672.956 256.458C672.902 256.501 672.858 256.554 672.825 256.614C672.792 256.674 672.771 256.74 672.764 256.809C672.764 256.852 672.279 261.092 670.142 262.005C669.208 262.412 668.004 262.134 666.664 261.17C666.549 261.05 666.395 260.975 666.23 260.956C666.118 260.95 666.009 260.98 665.916 261.042C665.823 261.103 665.752 261.192 665.714 261.297C665.676 261.401 665.672 261.516 665.703 261.623C665.734 261.73 665.799 261.823 665.887 261.891L666.001 261.97C666.272 262.284 666.878 263.447 666.564 264.154C666.308 264.739 665.317 264.96 663.778 264.768C663.642 264.751 663.505 264.79 663.398 264.874C663.289 264.958 663.219 265.081 663.201 265.217C663.185 265.354 663.222 265.492 663.306 265.601C663.391 265.71 663.514 265.783 663.65 265.803C664.242 265.869 664.839 265.869 665.431 265.803C665.793 265.791 666.148 265.703 666.474 265.545C666.8 265.386 667.087 265.16 667.32 264.882C667.514 264.58 667.637 264.239 667.68 263.882C667.723 263.526 667.685 263.165 667.569 262.826C668.034 263.049 668.54 263.174 669.056 263.189C669.572 263.205 670.085 263.113 670.562 262.919C673.249 261.727 673.776 257.087 673.797 256.887C673.804 256.757 673.759 256.629 673.675 256.529C673.591 256.43 673.471 256.366 673.341 256.352Z" fill="#2A2460"/>
<path fill-rule="evenodd" clip-rule="evenodd" d="M663.997 258.386C663.898 258.386 668.109 252.134 665.957 261.463C665.957 261.427 656.886 259.957 663.997 258.386Z" fill="url(#paint5_linear_21_216)"/>
<path opacity="0.43" fill-rule="evenodd" clip-rule="evenodd" d="M681.059 250.977C689.61 240.199 699.393 238.129 700.056 238.037C689.275 237.687 681.059 250.977 681.059 250.977Z" fill="#2A2460"/>
<path opacity="0.43" fill-rule="evenodd" clip-rule="evenodd" d="M681.812 251.755C692.722 244.418 702.264 245.374 702.891 245.503C693.086 242.034 681.812 251.755 681.812 251.755Z" fill="#2A2460"/>
<path opacity="0.43" fill-rule="evenodd" clip-rule="evenodd" d="M642.913 278.229C642.842 278.229 646.156 271.677 655.555 267.901C655.583 267.901 644.894 270.785 642.913 278.229Z" fill="#2A2460"/>
<path opacity="0.43" fill-rule="evenodd" clip-rule="evenodd" d="M647.396 281.705C647.339 281.748 648.457 274.746 655.947 268.579C655.925 268.579 647.032 274.282 647.396 281.705Z" fill="#2A2460"/>
<path opacity="0.13" fill-rule="evenodd" clip-rule="evenodd" d="M676.476 221.113C673.853 221.413 669.898 231.677 669.898 231.677C673.428 230.608 677.194 230.608 680.723 231.677C680.723 231.677 679.098 220.82 676.476 221.113Z" fill="#2A2460"/>
<path opacity="0.13" fill-rule="evenodd" clip-rule="evenodd" d="M635.494 252.526C633.969 253.518 638.972 258.065 638.972 258.065C638.972 258.065 639.684 253.49 642.777 251.912C642.755 251.912 637.012 251.541 635.494 252.526Z" fill="#2A2460"/>
<path fill-rule="evenodd" clip-rule="evenodd" d="M249.156 224.082V224.346C249.181 224.307 249.194 224.261 249.194 224.214C249.194 224.168 249.181 224.122 249.156 224.082Z" fill="#241D50"/>
<path fill-rule="evenodd" clip-rule="evenodd" d="M249.135 224.347C247.774 226.381 213.278 220.449 213.278 220.449C213.278 220.449 194.337 253.204 210.349 288.258C221.323 311.099 230.537 326.002 229.183 351.727C218.772 353.868 219.634 361.391 226.211 361.091C227.444 361.091 233.451 361.198 234.299 361.127C242.33 360.413 237.15 327.58 235.275 317.316C234.876 315.417 234.712 314.268 234.712 314.268C234.712 314.268 234.933 315.403 235.275 317.316C236.872 324.867 242.209 344.375 255.94 351.513C254.921 350.949 249.598 351.306 245.964 353.004C239.073 356.216 234.363 362.155 249.37 361.091C268.069 361.52 286.076 361.056 286.076 361.056C286.076 361.056 335.601 334.482 292.995 290.842C271.446 268.772 244.297 281.227 249.135 224.347Z" fill="#241D50"/>
<path fill-rule="evenodd" clip-rule="evenodd" d="M235.276 317.344C234.934 315.431 234.713 314.296 234.713 314.296C234.713 314.296 234.877 315.446 235.276 317.344Z" fill="#241D50"/>
<path d="M341.501 235.267C318.449 242.405 311.722 276.823 307.219 326.338C306.577 333.347 303.335 354.539 281.273 360.156C281.352 360.335 281.423 360.506 281.494 360.685C312.1 363.54 325.326 334.817 327.207 309.628C330.62 272.119 335.366 247.102 355.611 253.597C364.418 257.501 369.121 227.166 341.501 235.267Z" fill="#2A2460"/>
<path fill-rule="evenodd" clip-rule="evenodd" d="M272.344 196.838C266.401 197.516 256.105 198.865 255.007 200.207C246.15 189.786 228.42 188.893 223.325 188.865L201.456 170.492C201.111 170.2 200.696 170.003 200.253 169.921C199.809 169.839 199.352 169.875 198.926 170.024C198.5 170.173 198.12 170.431 197.823 170.772C197.528 171.113 197.326 171.526 197.238 171.97C195.741 179.521 192.82 194.418 193.062 194.86C167.886 231.591 217.154 248.651 236.58 246.866C259.276 242.519 264.584 234.975 267.221 227.594C270.264 219.029 269.024 217.516 269.024 217.516L275.116 200.385C275.27 199.962 275.314 199.506 275.243 199.061C275.172 198.616 274.99 198.196 274.712 197.841C274.435 197.486 274.072 197.208 273.658 197.033C273.244 196.857 272.792 196.79 272.344 196.838Z" fill="#2A2460"/>
<path d="M235.418 229.671C233.444 230.563 232.033 230.671 231.449 229.992C230.736 229.179 231.085 227.38 231.32 226.845L231.434 226.695C231.531 226.57 231.583 226.416 231.583 226.259C231.583 226.102 231.531 225.949 231.434 225.824C231.345 225.691 231.214 225.591 231.061 225.542C230.909 225.493 230.744 225.496 230.594 225.553C230.386 225.649 230.215 225.813 230.109 226.017C228.684 227.865 227.209 228.715 225.834 228.551C222.563 228.187 220.19 222.769 220.19 222.698C220.152 222.61 220.098 222.531 220.03 222.464C219.962 222.397 219.881 222.344 219.793 222.309C219.705 222.274 219.61 222.256 219.515 222.257C219.42 222.258 219.326 222.278 219.239 222.316C219.151 222.353 219.072 222.408 219.006 222.476C218.939 222.544 218.886 222.625 218.851 222.713C218.815 222.801 218.798 222.896 218.799 222.992C218.8 223.087 218.82 223.181 218.857 223.269C218.964 223.526 221.565 229.507 225.634 230C226.349 230.065 227.071 229.981 227.753 229.751C228.434 229.521 229.059 229.151 229.589 228.665C229.575 229.164 229.674 229.661 229.875 230.117C230.078 230.574 230.379 230.98 230.758 231.306C231.181 231.583 231.659 231.767 232.158 231.847C232.658 231.927 233.169 231.9 233.658 231.77C234.472 231.601 235.263 231.337 236.016 230.985C236.105 230.947 236.184 230.893 236.251 230.824C236.317 230.755 236.37 230.674 236.404 230.585C236.439 230.496 236.455 230.4 236.452 230.304C236.449 230.209 236.427 230.115 236.387 230.028C236.348 229.939 236.293 229.859 236.222 229.793C236.153 229.726 236.069 229.675 235.979 229.641C235.888 229.608 235.792 229.593 235.695 229.598C235.599 229.603 235.505 229.628 235.418 229.671Z" fill="white"/>
<path fill-rule="evenodd" clip-rule="evenodd" d="M232.517 221.192C232.66 221.192 224.487 214.518 231.149 226.095C231.149 226.095 242.672 220.435 232.517 221.192Z" fill="url(#paint6_linear_21_216)"/>
<path fill-rule="evenodd" clip-rule="evenodd" d="M176.096 208.772C177.008 208.594 190.889 207.402 206.737 218.308C206.737 218.308 190.362 203.94 176.096 208.772Z" fill="white"/>
<path fill-rule="evenodd" clip-rule="evenodd" d="M175.34 219.907C176.124 219.471 188.487 214.297 206.038 219.657C206.038 219.657 187.026 211.277 175.34 219.907Z" fill="white"/>
<path fill-rule="evenodd" clip-rule="evenodd" d="M247.682 230.506C261.77 231.713 268.874 239.15 268.767 239.143C263.124 230 247.682 230.506 247.682 230.506Z" fill="white"/>
<path fill-rule="evenodd" clip-rule="evenodd" d="M247.461 231.563C259.953 236.745 264.285 245.653 264.193 245.617C261.67 235.546 247.461 231.563 247.461 231.563Z" fill="white"/>
<path opacity="0.21" fill-rule="evenodd" clip-rule="evenodd" d="M200.716 176.545C197.089 177.223 199.333 192.391 199.333 192.391C203.609 189.525 208.633 187.986 213.777 187.965C213.777 187.965 204.336 175.874 200.716 176.545Z" fill="white"/>
<path opacity="0.21" fill-rule="evenodd" clip-rule="evenodd" d="M268.226 201.784C265.796 201.07 258.25 203.925 258.25 203.925C263.017 204.768 265.832 210.599 265.832 210.599C265.832 210.599 270.663 202.484 268.226 201.784Z" fill="white"/>
<path d="M403.838 359.821C397.354 359.821 390.734 357.837 385.061 355.774L383.023 355.024C374.009 351.705 364.681 348.279 355.774 350.628C352.879 351.498 350.08 352.662 347.422 354.104C345.748 354.939 344.023 355.795 342.249 356.523C337.974 358.265 331.831 359.714 326.672 356.752C326.521 356.666 326.388 356.551 326.281 356.413C326.175 356.276 326.097 356.119 326.05 355.952C326.005 355.784 325.993 355.609 326.014 355.436C326.036 355.263 326.092 355.097 326.178 354.947C326.265 354.795 326.38 354.663 326.517 354.557C326.655 354.45 326.812 354.373 326.98 354.328C327.148 354.283 327.322 354.271 327.495 354.293C327.667 354.316 327.833 354.373 327.983 354.46C332.444 357.023 338.209 355.317 341.251 354.075C342.933 353.361 344.615 352.548 346.24 351.741C349.059 350.218 352.027 348.989 355.097 348.072C364.81 345.51 374.529 349.086 383.928 352.548L385.959 353.261C394.81 356.488 406.097 359.528 414.819 354.389C414.969 354.286 415.138 354.216 415.317 354.181C415.495 354.147 415.679 354.15 415.856 354.19C416.033 354.229 416.201 354.306 416.348 354.413C416.494 354.52 416.618 354.656 416.71 354.813C416.802 354.969 416.86 355.144 416.882 355.324C416.904 355.505 416.889 355.688 416.837 355.863C416.786 356.037 416.699 356.199 416.582 356.338C416.465 356.478 416.321 356.592 416.159 356.673C412.411 358.818 408.154 359.906 403.838 359.821Z" fill="url(#paint7_linear_21_216)"/>
<path d="M434.385 352.488C444.734 342.121 444.734 325.314 434.385 314.947C424.036 304.581 407.256 304.581 396.907 314.947C386.557 325.314 386.557 342.121 396.907 352.488C407.256 362.854 424.036 362.854 434.385 352.488Z" fill="url(#paint8_linear_21_216)"/>
<path d="M66.3926 331.969C66.3926 331.969 105.514 318.037 161.046 331.006C103.975 350.792 70.7109 332.041 66.3926 331.969Z" fill="url(#paint9_linear_21_216)"/>
<path d="M61.5036 359.029H167.886C168.54 358.266 168.982 357.343 169.166 356.354C169.35 355.365 169.27 354.345 168.934 353.397L161.045 331.006C161.045 331.006 131.366 340.877 66.392 331.969L59.4371 352.669C59.0567 353.811 59.0522 355.045 59.4241 356.19C59.7961 357.335 60.525 358.33 61.5036 359.029Z" fill="url(#paint10_linear_21_216)"/>
<path opacity="0.42" d="M731.495 399H348.081C346.859 398.996 345.688 398.506 344.824 397.637C343.96 396.767 343.473 395.59 343.469 394.36C343.473 393.131 343.96 391.954 344.824 391.084C345.688 390.215 346.859 389.725 348.081 389.721H731.495C732.721 389.725 733.889 390.216 734.751 391.085C735.614 391.954 736.105 393.131 736.105 394.36C736.105 395.59 735.614 396.767 734.751 397.636C733.889 398.505 732.721 398.996 731.495 399Z" fill="url(#paint11_linear_21_216)"/>
<path d="M895.012 368.308H4.98494C3.68342 368.321 2.42941 367.804 1.49582 366.872C0.562229 365.939 0.024623 364.664 0 363.325C0.0177721 361.981 0.552368 360.699 1.4867 359.76C2.42104 358.821 3.67895 358.301 4.98494 358.315H895.012C896.316 358.306 897.57 358.827 898.504 359.765C899.437 360.704 899.964 361.984 899.986 363.325C899.957 364.661 899.423 365.934 898.496 366.866C897.563 367.799 896.316 368.317 895.012 368.308Z" fill="url(#paint12_linear_21_216)"/>
<defs>
<linearGradient id="paint0_linear_21_216" x1="539.699" y1="234.462" x2="565.997" y2="234.462" gradientUnits="userSpaceOnUse">
<stop stop-color="#82CDE4"/>
<stop offset="0.23" stop-color="#69C2D8"/>
<stop offset="0.72" stop-color="#28A6BA"/>
<stop offset="1" stop-color="#0094A7"/>
</linearGradient>
<linearGradient id="paint1_linear_21_216" x1="605.701" y1="205.924" x2="642.756" y2="205.924" gradientUnits="userSpaceOnUse">
<stop stop-color="#7BCBE2"/>
<stop offset="1" stop-color="#0096AB"/>
</linearGradient>
<linearGradient id="paint2_linear_21_216" x1="478.146" y1="181.299" x2="704.037" y2="181.299" gradientUnits="userSpaceOnUse">
<stop stop-color="#80CDE4"/>
<stop offset="1" stop-color="#0095A9"/>
</linearGradient>
<linearGradient id="paint3_linear_21_216" x1="601.988" y1="284.86" x2="800.259" y2="284.86" gradientUnits="userSpaceOnUse">
<stop stop-color="#E71A80"/>
<stop offset="1" stop-color="#EC6588"/>
</linearGradient>
<linearGradient id="paint4_linear_21_216" x1="597.863" y1="318.358" x2="810.613" y2="318.358" gradientUnits="userSpaceOnUse">
<stop stop-color="#EC6588"/>
<stop offset="1" stop-color="#E71A80"/>
</linearGradient>
<linearGradient id="paint5_linear_21_216" x1="-11019.6" y1="2422.76" x2="-11061.3" y2="2435.35" gradientUnits="userSpaceOnUse">
<stop stop-color="#EC6588"/>
<stop offset="1" stop-color="#E71A80"/>
</linearGradient>
<linearGradient id="paint6_linear_21_216" x1="228.534" y1="222.683" x2="236.7" y2="222.683" gradientUnits="userSpaceOnUse">
<stop stop-color="#EC6588"/>
<stop offset="1" stop-color="#E71A80"/>
</linearGradient>
<linearGradient id="paint7_linear_21_216" x1="19548.9" y1="3594.99" x2="31131.7" y2="3594.99" gradientUnits="userSpaceOnUse">
<stop stop-color="#EC6588"/>
<stop offset="1" stop-color="#E71A80"/>
</linearGradient>
<linearGradient id="paint8_linear_21_216" x1="389.152" y1="333.717" x2="442.147" y2="333.717" gradientUnits="userSpaceOnUse">
<stop stop-color="#E71A80"/>
<stop offset="1" stop-color="#EC6588"/>
</linearGradient>
<linearGradient id="paint9_linear_21_216" x1="66.3763" y1="332.008" x2="160.973" y2="333.897" gradientUnits="userSpaceOnUse">
<stop stop-color="#82CDE4"/>
<stop offset="0.23" stop-color="#69C2D8"/>
<stop offset="0.72" stop-color="#28A6BA"/>
<stop offset="1" stop-color="#0094A7"/>
</linearGradient>
<linearGradient id="paint10_linear_21_216" x1="59.2759" y1="344.126" x2="169.385" y2="346.325" gradientUnits="userSpaceOnUse">
<stop stop-color="#0094A7"/>
<stop offset="0.28" stop-color="#28A6BA"/>
<stop offset="0.77" stop-color="#69C2D8"/>
<stop offset="1" stop-color="#82CDE4"/>
</linearGradient>
<linearGradient id="paint11_linear_21_216" x1="343.469" y1="394.36" x2="736.105" y2="394.36" gradientUnits="userSpaceOnUse">
<stop stop-color="#EC6588"/>
<stop offset="1" stop-color="#E71A80"/>
</linearGradient>
<linearGradient id="paint12_linear_21_216" x1="0" y1="363.313" x2="900" y2="363.313" gradientUnits="userSpaceOnUse">
<stop stop-color="#A775B0"/>
<stop offset="1" stop-color="#7E468E"/>
</linearGradient>
</defs>
</svg>
