<svg width="136" height="46" viewBox="0 0 136 46" fill="none" xmlns="http://www.w3.org/2000/svg">
<g id="cloud 5" clip-path="url(#clip0_23_397)">
<g id="Layer 2">
<g id="Layer 1">
<path id="Vector" opacity="0.14" d="M128.283 26.3912C122.684 23.1405 115.982 22.1951 109.519 22.5803C103.056 22.9655 96.7391 24.6112 90.4922 26.2628C91.2562 24.621 91.4661 22.7754 91.0902 21.004C90.7143 19.2326 89.773 17.6312 88.408 16.4407C86.9894 15.3157 85.2433 14.6823 83.433 14.6359C81.6228 14.5896 79.8466 15.1329 78.3722 16.1839C75.6867 9.33821 71.635 1.92638 64.5007 0.298111C59.1413 -0.921631 53.4491 1.7513 49.8061 5.83656C46.1631 9.92181 44.2481 15.291 42.9579 20.6252C41.253 19.0736 39.1519 18.0239 36.8871 17.5922C34.6223 17.1605 32.2822 17.3638 30.1258 18.1794C27.9694 18.995 26.0809 20.3912 24.6692 22.2134C23.2575 24.0356 22.3778 26.2128 22.1273 28.5039C18.9339 25.4458 15.1799 22.5569 10.813 22.0784C5.31343 21.4773 0.753825 25.796 0.0824364 31.0659C-0.670687 37.0012 3.98233 42.884 8.99147 45.4519C9.37095 45.6503 9.75627 45.8312 10.1591 46.0005H126.508C128.68 45.2309 130.899 44.5993 133.152 44.1096C133.538 43.7705 133.896 43.3996 134.22 43.0007C136.328 40.4037 136.474 36.581 135.131 33.4996C133.788 30.4181 131.178 28.072 128.283 26.3912Z" fill="url(#paint0_linear_23_397)"/>
</g>
</g>
</g>
<defs>
<linearGradient id="paint0_linear_23_397" x1="0.00070215" y1="23.0005" x2="136.001" y2="23.0005" gradientUnits="userSpaceOnUse">
<stop stop-color="#81CCE3"/>
<stop offset="0.23" stop-color="#68C1D7"/>
<stop offset="0.72" stop-color="#27A4B9"/>
<stop offset="1" stop-color="#0093A7"/>
</linearGradient>
<clipPath id="clip0_23_397">
<rect width="136" height="46" fill="white"/>
</clipPath>
</defs>
</svg>
