<svg width="57" height="20" viewBox="0 0 57 20" fill="none" xmlns="http://www.w3.org/2000/svg">
<g id="cloud 7" clip-path="url(#clip0_23_405)">
<g id="Layer 2">
<g id="Layer 1">
<path id="Vector" opacity="0.14" d="M53.7667 11.4751C51.4201 10.0617 48.6111 9.65068 45.9024 9.81815C43.1937 9.98562 40.5462 10.7012 37.928 11.4193C38.2482 10.7054 38.3362 9.903 38.1786 9.13282C38.0211 8.36265 37.6266 7.66637 37.0545 7.14878C36.4599 6.65964 35.7281 6.38423 34.9694 6.36409C34.2107 6.34395 33.4662 6.58017 32.8483 7.03713C31.7228 4.06073 30.0246 0.838194 27.0345 0.130252C24.7883 -0.400071 22.4026 0.762071 20.8757 2.53827C19.3489 4.31447 18.5463 6.6489 18.0056 8.96811C17.291 8.29351 16.4104 7.83711 15.4612 7.64943C14.512 7.46174 13.5312 7.5501 12.6274 7.90471C11.7236 8.25932 10.9321 8.86636 10.3404 9.65863C9.74877 10.4509 9.38005 11.3975 9.27509 12.3936C7.93665 11.064 6.36331 9.808 4.53305 9.59993C2.22809 9.33858 0.317076 11.2163 0.0356851 13.5076C-0.279962 16.0881 1.6702 18.6459 3.76962 19.7623C3.92867 19.8486 4.09016 19.9273 4.259 20.0009H53.0228C53.9334 19.6662 54.8634 19.3917 55.8074 19.1787C55.9694 19.0313 56.1191 18.87 56.2551 18.6966C57.1385 17.5675 57.1996 15.9054 56.6369 14.5657C56.0741 13.2259 54.9803 12.2059 53.7667 11.4751Z" fill="url(#paint0_linear_23_405)"/>
</g>
</g>
</g>
<defs>
<linearGradient id="paint0_linear_23_405" x1="0.00142882" y1="10.0008" x2="57.0014" y2="10.0008" gradientUnits="userSpaceOnUse">
<stop stop-color="#81CCE3"/>
<stop offset="0.23" stop-color="#68C1D7"/>
<stop offset="0.72" stop-color="#27A4B9"/>
<stop offset="1" stop-color="#0093A7"/>
</linearGradient>
<clipPath id="clip0_23_405">
<rect width="57" height="20" fill="white"/>
</clipPath>
</defs>
</svg>
