<svg width="118" height="40" viewBox="0 0 118 40" fill="none" xmlns="http://www.w3.org/2000/svg">
<g id="cloud 6" clip-path="url(#clip0_23_401)">
<g id="Layer 2">
<g id="Layer 1">
<path id="Vector" opacity="0.14" d="M111.304 22.9491C106.447 20.1224 100.631 19.3002 95.0239 19.6352C89.4165 19.9701 83.9356 21.4012 78.5156 22.8374C79.1784 21.4097 79.3605 19.8049 79.0344 18.2645C78.7082 16.7242 77.8915 15.3316 76.7072 14.2964C75.4763 13.3181 73.9613 12.7673 72.3907 12.7271C70.82 12.6868 69.2789 13.1592 67.9997 14.0731C65.6696 8.12033 62.1541 1.67526 55.9641 0.259374C51.314 -0.801271 46.3752 1.52301 43.2143 5.07541C40.0535 8.62781 38.392 13.2967 37.2726 17.9351C35.7933 16.5859 33.9703 15.6731 32.0053 15.2977C30.0402 14.9224 28.0098 15.0991 26.1389 15.8083C24.2679 16.5175 22.6293 17.7316 21.4044 19.3161C20.1796 20.9007 19.4163 22.7939 19.199 24.7862C16.4282 22.1269 13.1711 19.6149 9.38211 19.1987C4.61044 18.676 0.654313 22.4314 0.0717842 27.014C-0.581661 32.1751 3.45551 37.2906 7.80168 39.5235C8.13094 39.6961 8.46526 39.8534 8.81478 40.0006H109.764C111.649 39.3314 113.575 38.7822 115.529 38.3563C115.864 38.0615 116.174 37.7389 116.456 37.3921C118.285 35.1338 118.411 31.8098 117.246 29.1302C116.081 26.4507 113.817 24.4106 111.304 22.9491Z" fill="url(#paint0_linear_23_401)"/>
</g>
</g>
</g>
<defs>
<linearGradient id="paint0_linear_23_401" x1="0.00086772" y1="20.0006" x2="118.001" y2="20.0006" gradientUnits="userSpaceOnUse">
<stop stop-color="#81CCE3"/>
<stop offset="0.23" stop-color="#68C1D7"/>
<stop offset="0.72" stop-color="#27A4B9"/>
<stop offset="1" stop-color="#0093A7"/>
</linearGradient>
<clipPath id="clip0_23_401">
<rect width="118" height="40" fill="white"/>
</clipPath>
</defs>
</svg>
