<svg width="180" height="179" viewBox="0 0 180 179" fill="none" xmlns="http://www.w3.org/2000/svg">
<path d="M171.592 59.6139C169.507 58.1055 167.844 56.087 166.762 53.7516C165.68 51.4163 165.216 48.8424 165.415 46.2763C165.684 42.7097 164.674 39.1637 162.566 36.2742C160.458 33.3847 157.389 31.3406 153.911 30.5085C151.406 29.9123 149.097 28.6824 147.205 26.9367C145.313 25.1911 143.901 22.9883 143.105 20.5399C141.994 17.1353 139.705 14.2387 136.649 12.3714C133.593 10.504 129.972 9.78826 126.435 10.353C123.887 10.7598 121.278 10.505 118.857 9.61307C116.436 8.72115 114.285 7.22203 112.61 5.25955C110.28 2.53894 107.056 0.738724 103.518 0.182539C99.979 -0.373647 96.3581 0.350684 93.3059 2.22531C91.1137 3.57159 88.6131 4.33393 86.0427 4.43965C83.4723 4.54537 80.9176 3.99095 78.6222 2.82925C75.4308 1.19959 71.7616 0.765938 68.2782 1.60675C64.7949 2.44755 61.7275 4.50729 59.6309 7.41335C58.1203 9.49576 56.1011 11.1563 53.7662 12.2365C51.4313 13.3167 48.8585 13.7805 46.2934 13.5837C42.7226 13.3059 39.1699 14.3121 36.2752 16.4212C33.3804 18.5302 31.3337 21.6035 30.5037 25.0876C29.9101 27.5965 28.6814 29.9107 26.9358 31.808C25.1901 33.7053 22.986 35.122 20.5351 35.9221C17.1299 37.0344 14.2332 39.325 12.3659 42.382C10.4986 45.4391 9.78315 49.0621 10.3482 52.5995C10.7564 55.1473 10.5023 57.7572 9.61031 60.1784C8.71829 62.5996 7.21837 64.7506 5.25478 66.4245C2.53534 68.7555 0.736525 71.98 0.18168 75.5185C-0.373164 79.0569 0.352354 82.6773 2.22782 85.7287C3.57252 87.9109 4.33779 90.4003 4.45112 92.961C4.56445 95.5217 4.02209 98.069 2.87541 100.361C1.2511 103.556 0.818153 107.224 1.65427 110.708C2.49038 114.193 4.54082 117.265 7.43769 119.375C9.52217 120.883 11.1843 122.902 12.2647 125.238C13.3451 127.573 13.8077 130.147 13.608 132.712C13.333 136.283 14.3401 139.835 16.4486 142.731C18.5571 145.626 21.6287 147.675 25.1119 148.509C27.6164 149.102 29.9263 150.329 31.8198 152.072C33.7133 153.815 35.1268 156.016 35.9246 158.463C37.0354 161.868 39.3247 164.764 42.3805 166.632C45.4364 168.499 49.0583 169.215 52.5947 168.65C55.1424 168.243 57.752 168.498 60.1729 169.39C62.5938 170.282 64.7449 171.781 66.4198 173.743C68.7517 176.462 71.9767 178.259 75.5151 178.813C79.0535 179.366 82.6733 178.639 85.7239 176.763C87.0737 175.933 88.5476 175.324 90.0897 174.959C93.5702 174.117 97.2367 174.545 100.429 176.166C103.623 177.788 107.291 178.216 110.772 177.375C114.254 176.533 117.32 174.476 119.421 171.575C120.931 169.493 122.951 167.832 125.285 166.752C127.62 165.672 130.193 165.208 132.758 165.405C136.33 165.686 139.884 164.681 142.779 162.571C145.675 160.461 147.721 157.386 148.548 153.901C149.147 151.398 150.378 149.09 152.123 147.198C153.868 145.306 156.07 143.894 158.517 143.095C161.919 141.979 164.813 139.688 166.68 136.632C168.547 133.576 169.264 129.955 168.703 126.418C168.299 123.876 168.555 121.272 169.447 118.858C170.339 116.443 171.837 114.298 173.797 112.629C176.517 110.299 178.318 107.075 178.874 103.537C179.43 99.9983 178.706 96.3775 176.831 93.3252C175.483 91.1332 174.721 88.6316 174.618 86.0604C174.515 83.4892 175.074 80.9345 176.242 78.6415C177.861 75.4362 178.283 71.7578 177.43 68.2692C176.578 64.7807 174.507 61.7112 171.592 59.6139ZM107.422 163.586C92.7698 167.124 77.3974 166.237 63.249 161.038C49.1005 155.84 36.8114 146.562 27.9355 134.379C19.0597 122.196 13.9959 107.655 13.3844 92.5939C12.7729 77.533 16.6412 62.629 24.5001 49.7665C32.359 36.9041 43.8556 26.6609 57.536 20.3323C71.2165 14.0037 86.4663 11.8739 101.357 14.2123C116.248 16.5507 130.111 23.2521 141.193 33.4693C152.275 43.6865 160.079 56.9604 163.617 71.6126C168.338 91.2595 165.072 111.977 154.537 129.219C144.002 146.461 127.058 158.821 107.422 163.586Z" fill="#F6A6BF"/>
</svg>
