<svg width="73" height="60" viewBox="0 0 73 60" fill="none" xmlns="http://www.w3.org/2000/svg">
<g opacity="0.25">
<path d="M48.4835 0.166929C42.6391 1.70854 39.1324 9.07691 41.5973 14.6163C44.7228 21.6188 54.1247 20.7043 57.6313 13.0746C58.3682 11.4546 58.4445 11.0888 58.4445 8.68497C58.4445 6.3595 58.3682 5.9153 57.733 4.58273C56.9453 2.96273 55.5985 1.55177 53.9468 0.689508C52.7525 0.0624142 49.9319 -0.198875 48.4835 0.166929ZM52.473 4.68724C53.7943 5.62788 54.328 6.5424 54.455 8.11014C54.9124 13.9369 48.0007 17.7779 45.4343 13.1008C42.9949 8.68497 48.5852 1.99596 52.473 4.68724Z" fill="#F6A6BF"/>
<path d="M19.5157 0.612373C17.9656 1.18721 16.0344 3.09463 15.1959 4.84527C14.5606 6.17785 14.4844 6.62204 14.4844 8.94752C14.4844 11.3514 14.5606 11.7172 15.2975 13.3372C16.9492 16.943 20.1509 19.2946 23.683 19.4775C26.0716 19.6081 27.6725 19.0594 29.3241 17.544C33.2374 13.9382 33.0595 7.37978 28.943 3.14688C27.0372 1.18721 25.2076 0.351084 22.6158 0.272697C21.269 0.22044 20.2272 0.351084 19.5157 0.612373ZM24.4707 4.8714C26.529 5.96881 27.8249 8.033 28.0282 10.5153C28.4856 16.4465 21.4723 17.152 18.9566 11.4298C17.9402 9.10429 18.4738 6.20398 20.1763 5.00204C21.3198 4.21817 23.124 4.16592 24.4707 4.8714Z" fill="#F6A6BF"/>
<path d="M62.7642 17.7786C59.4354 18.6669 57.0468 20.6005 55.5984 23.6576C54.6836 25.5127 54.6328 25.8001 54.6328 27.995C54.6328 29.9547 54.7345 30.5818 55.2173 31.5747C55.9796 33.1685 57.2755 34.5272 58.9018 35.4156C60.0707 36.0427 60.5027 36.1211 62.6625 36.1211C64.9495 36.1211 65.1782 36.0688 66.9823 35.1543C74.1735 31.4963 75.1391 21.7763 68.6849 18.5102C66.8045 17.5434 64.6446 17.2821 62.7642 17.7786ZM67.1856 22.3511C68.8373 23.6053 69.3201 25.4082 68.6086 27.603C67.5414 30.9476 63.374 33.0379 60.6043 31.6008C57.8854 30.2159 57.86 26.3227 60.5789 23.6053C62.4339 21.7502 65.6102 21.1492 67.1856 22.3511Z" fill="#F6A6BF"/>
<path d="M5.31081 18.7445C3.32878 19.3978 1.65169 20.8871 0.711496 22.8729C0.101642 24.1532 0 24.6758 0 26.6094C0 28.6474 0.0762317 28.9871 0.965601 30.8161C4.52308 38.2368 14.1537 39.1774 17.6095 32.4623C18.2194 31.3126 18.2956 30.8684 18.2956 28.6736C18.2702 26.5049 18.194 26.0084 17.5587 24.702C16.1103 21.6187 13.1627 19.1626 10.088 18.5094C8.23302 18.1175 7.11496 18.1697 5.31081 18.7445ZM10.6978 23.082C13.6201 24.519 15.1701 28.2555 13.8996 30.7639C13.3151 31.8874 11.5872 32.8542 10.1642 32.8542C7.11496 32.8542 3.93864 29.5097 3.93864 26.3481C3.93864 24.911 5.0567 23.291 6.47969 22.69C7.34365 22.2981 9.52896 22.5071 10.6978 23.082Z" fill="#F6A6BF"/>
<path d="M32.9338 24.6503C29.5796 25.5648 26.2762 28.4129 24.7262 31.7835C23.8368 33.6648 23.786 33.7171 21.9564 34.6316C20.6097 35.2848 19.5933 36.0426 18.4244 37.2706C11.3094 44.7174 14.6636 56.998 24.5229 59.637C27.9025 60.5515 32.2985 59.6893 35.1699 57.599L36.4659 56.6322L37.7618 57.599C40.5824 59.6893 44.7497 60.4993 48.2564 59.6631C54.177 58.226 58.319 52.7912 58.319 46.4941C58.319 41.608 55.2951 36.748 50.9499 34.6055C49.0695 33.6648 49.0441 33.6387 48.1801 31.7574C46.6301 28.3084 43.098 25.3558 39.5151 24.5197C37.8889 24.1277 34.5601 24.2061 32.9338 24.6503ZM39.6168 28.9616C42.1324 29.9022 44.394 32.489 45.1309 35.2064C45.5629 36.7742 45.9694 37.2445 47.3924 37.6625C49.3236 38.2635 50.4925 38.9951 51.7884 40.4061C53.618 42.418 54.1262 43.7245 54.1262 46.5725C54.1262 48.5583 54.0246 49.1332 53.4655 50.3874C52.5254 52.4515 51.1786 53.8625 49.222 54.8554C47.6973 55.6393 47.3162 55.7177 45.2325 55.7177C43.2505 55.7177 42.7677 55.6132 41.5226 55.0122C40.7349 54.5941 39.4643 53.6273 38.6766 52.8435C36.7708 50.9099 36.1864 50.9099 34.2297 52.8435C33.442 53.6535 32.1461 54.6202 31.3838 55.0122C30.1641 55.6132 29.6813 55.7177 27.6992 55.7177C25.768 55.7177 25.1836 55.6132 23.9893 55.0383C21.9819 54.0715 20.6097 52.6867 19.6441 50.6748C18.8818 49.0809 18.8055 48.7151 18.8055 46.5725C18.8309 43.7245 19.3392 42.3919 21.1433 40.4061C22.4392 38.9951 23.6081 38.2635 25.5393 37.6625C26.9623 37.2445 27.3689 36.7742 27.8009 35.2064C28.5378 32.5151 30.7993 29.9284 33.2387 28.9616C35.0429 28.2561 37.7872 28.23 39.6168 28.9616Z" fill="#F6A6BF"/>
</g>
</svg>
