<svg width="35" height="35" viewBox="0 0 35 35" fill="none" xmlns="http://www.w3.org/2000/svg">
<path d="M8.69829 31.5H24.9383C26.5955 31.5 27.9395 30.156 27.9395 28.497V15.1795C30.757 15.0675 32.4423 11.942 30.9373 9.513L30.0588 8.0955C29.7262 7.55837 29.262 7.11506 28.7101 6.80759C28.1583 6.50011 27.537 6.33864 26.9053 6.3385H24.394V5.2255C24.394 4.9989 24.3494 4.77453 24.2627 4.56518C24.176 4.35583 24.0489 4.16561 23.8886 4.00539C23.7284 3.84516 23.5382 3.71806 23.3289 3.63135C23.1195 3.54463 22.8951 3.5 22.6685 3.5C22.1066 3.50023 21.5503 3.61113 21.0313 3.82637C20.5122 4.04161 20.0407 4.35697 19.6435 4.75445C19.2464 5.15194 18.9314 5.62375 18.7166 6.14296C18.5018 6.66217 18.3913 7.21861 18.3915 7.7805V13.8285C16.155 14.049 14.4663 15.106 13.2255 16.597C11.857 18.242 11.0503 20.3858 10.5708 22.4455C10.0878 24.514 9.91804 26.572 9.86554 28.1015C9.84454 28.756 9.84454 29.3195 9.85154 29.75H8.69829C8.02595 29.7501 7.36826 29.5536 6.80609 29.1848C6.24391 28.8161 5.80177 28.291 5.53404 27.6743C5.2663 27.0576 5.18464 26.3761 5.2991 25.7135C5.41356 25.051 5.71915 24.4364 6.17829 23.9453L7.78829 22.218C8.8979 21.0279 9.50232 19.4535 9.47425 17.8266C9.44618 16.1997 8.7878 14.6472 7.63779 13.496L6.05754 11.9158C5.97682 11.8322 5.88027 11.7655 5.77352 11.7197C5.66676 11.6738 5.55194 11.6497 5.43576 11.6487C5.31958 11.6476 5.20436 11.6698 5.09683 11.7138C4.98929 11.7578 4.8916 11.8227 4.80944 11.9049C4.72728 11.9871 4.66231 12.0848 4.61832 12.1923C4.57432 12.2998 4.55218 12.415 4.55319 12.5312C4.5542 12.6474 4.57834 12.7622 4.6242 12.869C4.67006 12.9757 4.73671 13.0723 4.82029 13.153L6.40054 14.7333C7.23076 15.5632 7.70613 16.6832 7.72638 17.8569C7.74662 19.0307 7.31015 20.1664 6.50904 21.0245L4.89904 22.7518C4.20904 23.4928 3.75026 24.419 3.57893 25.4169C3.40761 26.4148 3.53118 27.441 3.93451 28.3697C4.33784 29.2985 5.00339 30.0893 5.84957 30.6453C6.69574 31.2013 7.68578 31.4984 8.69829 31.5ZM22.6458 5.25V7.2135C22.6458 7.44557 22.738 7.66812 22.9021 7.83222C23.0662 7.99631 23.2887 8.0885 23.5208 8.0885H26.9053C27.5843 8.0885 28.2143 8.4385 28.5713 9.016L29.4515 10.4353C29.6358 10.7325 29.7372 11.0736 29.7455 11.4233C29.7537 11.7729 29.6684 12.1185 29.4983 12.4241C29.3283 12.7297 29.0797 12.9844 28.7783 13.1618C28.4769 13.3391 28.1335 13.4328 27.7838 13.433H27.0663C26.8342 13.433 26.6117 13.5252 26.4476 13.6893C26.2835 13.8534 26.1913 14.0759 26.1913 14.308V28.497C26.1913 29.1883 25.6313 29.75 24.9383 29.75H23.6853V28.497C23.6858 27.1365 23.1458 25.8315 22.1843 24.8689C21.2228 23.9064 19.9183 23.3652 18.5578 23.3643H16.7833C16.5512 23.3643 16.3287 23.4564 16.1646 23.6205C16.0005 23.7846 15.9083 24.0072 15.9083 24.2393C15.9083 24.4713 16.0005 24.6939 16.1646 24.858C16.3287 25.0221 16.5512 25.1143 16.7833 25.1143H18.556C20.4233 25.1143 21.937 26.628 21.937 28.497V29.75H11.6015C11.5928 29.3405 11.5928 28.798 11.6138 28.1593C11.6628 26.6963 11.8238 24.7643 12.2735 22.8428C12.7233 20.9108 13.446 19.0645 14.5695 17.7153C15.6668 16.401 17.156 15.5365 19.2665 15.5365C19.4986 15.5365 19.7212 15.4443 19.8853 15.2802C20.0493 15.1161 20.1415 14.8936 20.1415 14.6615V7.7805C20.1415 6.391 21.2598 5.26225 22.644 5.25H22.6458Z" fill="#F6A6BF"/>
</svg>
