<svg width="35" height="35" viewBox="0 0 35 35" fill="none" xmlns="http://www.w3.org/2000/svg">
<path d="M9.26264 2.70705C7.123 3.01466 5.6396 3.58204 4.22456 4.64845C0.915965 7.1299 -0.615285 11.2793 0.246043 15.4219C0.615184 17.2266 1.56538 19.0791 2.78218 20.3779C3.12397 20.7402 5.74214 22.9277 10.083 26.4824C13.8085 29.5244 16.9531 32.0879 17.083 32.1768C17.4111 32.4024 17.6367 32.375 18.0263 32.0811C18.2041 31.9443 21.2802 29.4356 24.8554 26.5098C29.5039 22.709 31.5546 20.9863 32.04 20.4873C33.455 19.0176 34.3574 17.2813 34.8017 15.1758C35.0273 14.1367 35.0273 12.1748 34.8017 11.1426C34.3847 9.16701 33.5302 7.45802 32.2519 6.03615C30.748 4.35451 28.9843 3.34279 26.7285 2.86427C25.7509 2.65236 23.8779 2.63869 22.8662 2.83009C21.0341 3.17189 19.4277 3.94435 18.0126 5.17482L17.4589 5.65333L16.9599 5.18165C15.7705 4.0674 14.1298 3.25392 12.3115 2.86427C11.6757 2.73439 9.77534 2.63185 9.26264 2.70705ZM11.6005 4.14259C11.997 4.19728 12.6328 4.34767 13.0224 4.47755C14.3828 4.92189 15.3193 5.49611 16.4677 6.59669C17.1787 7.27345 17.2333 7.31447 17.5068 7.31447C17.7802 7.31447 17.8281 7.28029 18.4843 6.63771C19.8652 5.28419 21.1435 4.59377 22.9687 4.19728C23.7685 4.01955 25.6347 4.01955 26.4414 4.19728C28.2802 4.59377 29.7636 5.41408 31.0351 6.74025C31.7529 7.48536 32.1767 8.07326 32.6005 8.90724C33.6738 11.0127 33.8925 13.6719 33.1816 15.9551C32.7236 17.4043 32.0605 18.5391 31.0488 19.5781C30.7958 19.8379 27.6445 22.4629 24.0351 25.4092L17.4863 30.7686L17.165 30.502C16.9941 30.3584 13.9863 27.8975 10.4863 25.0401C6.48042 21.7656 3.97163 19.667 3.7187 19.3799C2.63862 18.1563 1.92768 16.7412 1.55854 15.0527C1.33979 14.082 1.34663 12.2227 1.55854 11.2246C1.83882 9.93263 2.34468 8.76369 3.05561 7.77931C3.51362 7.14357 4.39546 6.22755 4.956 5.80372C6.83589 4.38185 9.20796 3.78712 11.6005 4.14259Z" fill="#F6A6BF"/>
<path d="M13.6371 8.50391C11.9623 8.90723 11.0804 10.7939 11.8392 12.3594C12.0511 12.8037 12.6664 13.4053 13.1585 13.6377C13.5277 13.8223 13.6371 13.8359 14.2865 13.8428C14.9222 13.8428 15.0453 13.8223 15.4007 13.6582C15.9476 13.3984 16.5013 12.8584 16.7679 12.3115C16.9662 11.8945 16.9867 11.8125 16.9798 11.1768C16.9798 10.3018 16.8158 9.86426 16.3031 9.31055C15.6195 8.56543 14.6146 8.26465 13.6371 8.50391ZM15.0658 10.0283C15.599 10.4043 15.7972 11.1289 15.5238 11.7236C15.0043 12.8516 13.3021 12.7285 12.9808 11.5322C12.8373 10.9854 13.0355 10.3496 13.4525 10.0625C13.9447 9.7207 14.6078 9.70703 15.0658 10.0283Z" fill="#F6A6BF"/>
<path d="M20.0986 8.47654C19.3057 8.64744 18.5811 9.22166 18.2256 9.98045C18.0273 10.3906 18.0137 10.4795 18.0137 11.1426C18.0137 11.8056 18.0273 11.8945 18.2256 12.3047C18.793 13.5078 20.1738 14.1367 21.4385 13.7812C22.252 13.5488 22.9355 12.9199 23.25 12.1201C23.5713 11.2998 23.4141 10.1855 22.874 9.48143C22.2725 8.68846 21.1035 8.27147 20.0986 8.47654ZM21.2266 9.90525C21.7803 10.1513 22.1494 10.8008 22.0469 11.3408C21.9238 11.9902 21.4658 12.4346 20.8574 12.4961C20.4404 12.5371 20.0918 12.4209 19.7773 12.1474C19.4697 11.8808 19.3467 11.5869 19.3467 11.1426C19.3467 10.1513 20.3379 9.50193 21.2266 9.90525Z" fill="#F6A6BF"/>
<path d="M9.12644 13.0088C8.40866 13.248 7.91647 13.665 7.62936 14.2803C7.41745 14.7451 7.42429 15.832 7.64304 16.2764C7.89597 16.7891 8.23776 17.1309 8.73679 17.377C9.14694 17.582 9.24948 17.6025 9.81003 17.6025C10.3774 17.6025 10.4594 17.582 10.8559 17.3701C11.3686 17.0898 11.7104 16.7275 11.9497 16.208C12.2094 15.6611 12.2026 14.8955 11.9497 14.3418C11.7104 13.8291 11.2798 13.3779 10.8217 13.1455C10.3706 12.9268 9.57077 12.8652 9.12644 13.0088ZM10.2134 14.3828C10.8764 14.6562 10.9721 15.6543 10.3774 16.0713C10.104 16.2695 9.6528 16.3174 9.3862 16.1738C9.01022 15.9824 8.81882 15.6885 8.81882 15.2988C8.81882 14.5264 9.49558 14.082 10.2134 14.3828Z" fill="#F6A6BF"/>
<path d="M24.3218 13.0772C23.6587 13.3575 23.2144 13.8223 22.9615 14.4785C22.6607 15.2783 22.8999 16.3379 23.5152 16.9532C24.5132 17.9512 26.2837 17.8076 27.104 16.6524C27.562 16.0098 27.6646 15.0323 27.357 14.335C27.1587 13.8975 26.646 13.3643 26.1949 13.1455C25.648 12.8789 24.8619 12.8516 24.3218 13.0772ZM25.7095 14.4444C26.3521 14.875 26.3111 15.8047 25.6275 16.1465C24.7661 16.5908 23.8365 15.6065 24.3355 14.7793C24.6294 14.3008 25.2583 14.1436 25.7095 14.4444Z" fill="#F6A6BF"/>
<path d="M16.9062 15.1826C14.1582 15.4424 11.8545 17.4248 11.0615 20.2071C10.9385 20.6446 10.9111 20.9248 10.9043 21.7041C10.9043 22.6406 10.9111 22.668 11.123 23.126C11.54 24.0078 12.4424 24.6778 13.3789 24.8145C13.666 24.8555 14.3154 24.8145 15.71 24.6778L17.6377 24.4795L19.2305 24.6504C21.2334 24.8623 21.8623 24.876 22.334 24.6914C23.1885 24.3633 23.7217 23.8848 24.084 23.1192C24.6103 21.9981 24.3096 19.9541 23.4004 18.4365C23.0312 17.8281 22.2588 16.96 21.6709 16.5088C20.3516 15.4903 18.6357 15.0186 16.9062 15.1826ZM18.9023 16.6865C21.2402 17.2539 22.9697 19.4004 22.9697 21.7383C22.9697 22.4492 22.8193 22.8115 22.3682 23.1533C21.8965 23.5156 21.6914 23.5225 19.5381 23.3037L17.6103 23.1055L15.6689 23.3037C13.9873 23.4746 13.6797 23.4951 13.3926 23.4199C12.6611 23.2285 12.2373 22.6201 12.2373 21.7725C12.2373 19.127 14.3701 16.8096 17.043 16.5498C17.6992 16.4883 18.2393 16.5225 18.9023 16.6865Z" fill="#F6A6BF"/>
</svg>
