<svg width="187" height="36" viewBox="0 0 187 36" fill="none" xmlns="http://www.w3.org/2000/svg">
<g clip-path="url(#clip0_23_374)">
<path fill-rule="evenodd" clip-rule="evenodd" d="M170.941 23.4089C171.111 21.6403 171.634 19.9256 172.479 18.3701C172.745 17.8023 173.171 17.3279 173.704 17.0076C174.236 16.6872 174.85 16.5353 175.467 16.5713C176.059 16.6194 176.62 16.8596 177.067 17.2566C177.514 17.6535 177.824 18.186 177.95 18.7755C178.424 20.4557 178.522 22.2224 178.236 23.9459C178.079 25.727 177.562 27.4561 176.719 29.0255C176.452 29.5844 176.027 30.0497 175.498 30.3622C174.97 30.6746 174.362 30.82 173.752 30.7798C173.158 30.7294 172.595 30.4855 172.148 30.0844C171.7 29.6832 171.392 29.1461 171.269 28.5529C170.796 26.8824 170.684 25.1276 170.941 23.4089ZM186.893 24.5817C187.125 23.0117 187.026 21.4094 186.601 19.8814C186.177 18.3534 185.438 16.9347 184.432 15.7196C183.406 14.4672 182.133 13.4476 180.694 12.7269C179.256 12.0061 177.685 11.6001 176.082 11.5353C172.755 11.245 169.449 12.2953 166.877 14.4597C165.606 15.4676 164.545 16.7228 163.757 18.1518C162.968 19.5809 162.468 21.1552 162.285 22.783C162.053 24.3546 162.154 25.9586 162.582 27.4871C163.01 29.0156 163.755 30.4334 164.767 31.6451C165.798 32.8966 167.076 33.9152 168.518 34.6358C169.959 35.3563 171.533 35.7629 173.138 35.8295C176.478 36.1431 179.804 35.0994 182.389 32.9268C183.643 31.9054 184.686 30.6425 185.459 29.2105C186.232 27.7785 186.719 26.2055 186.893 24.5817ZM160.79 31.5553C157.479 29.336 155.414 26.7267 154.593 23.7273C158.342 21.9276 160.363 19.7682 160.658 17.2489C160.768 16.5336 160.727 15.8025 160.538 15.1044C160.349 14.4063 160.015 13.7573 159.559 13.2007C159.069 12.6491 158.463 12.217 157.786 11.9365C157.109 11.656 156.378 11.5343 155.648 11.5806C154.458 11.5774 153.295 11.938 152.309 12.6156C151.889 12.8318 151.525 13.1431 151.243 13.5255C150.961 13.9079 150.769 14.351 150.683 14.8207L151.078 15.54C151.369 16.0163 151.613 16.5214 151.804 17.0476C151.993 17.6575 151.978 18.3144 151.759 18.9143C151.471 19.7213 150.921 20.4041 150.199 20.8491C149.333 21.4188 148.361 21.8016 147.343 21.9739L147.87 18.2848C148.027 17.4188 148.009 16.5293 147.816 15.6707C147.624 14.8121 147.261 14.0025 146.75 13.2914C146.24 12.673 145.596 12.1841 144.867 11.8638C144.139 11.5435 143.347 11.4005 142.555 11.4464C141.329 11.4617 140.13 11.8113 139.083 12.4587C138.135 12.9377 137.354 13.699 136.842 14.6411C136.813 14.6924 136.794 14.7494 136.787 14.8084C136.78 14.8675 136.785 14.9273 136.802 14.9843C136.819 15.0413 136.847 15.0941 136.884 15.1396C136.922 15.1851 136.968 15.2223 137.021 15.2488C137.255 15.4139 137.533 15.6014 137.855 15.8112C138.31 16.2931 138.582 16.9228 138.624 17.5891C138.819 18.8781 138.826 20.1893 138.646 21.4804L136.84 34.8317V34.9224L136.973 35.0131H145.409C145.451 35.0001 145.49 34.9768 145.521 34.9451C145.552 34.9135 145.575 34.8745 145.588 34.8317L146.862 25.6094C146.991 25.5719 147.124 25.5494 147.257 25.5423C147.436 25.5269 147.565 25.5196 147.653 25.5196C147.653 25.669 147.668 26.0216 147.697 26.5773C147.727 27.133 147.749 27.553 147.763 27.8372C147.778 28.122 147.822 28.5644 147.895 29.1643C147.946 29.6432 148.036 30.1171 148.163 30.5811C148.265 30.9258 148.411 31.3609 148.602 31.8864C148.755 32.3432 148.986 32.7692 149.283 33.1454C149.594 33.509 149.924 33.8545 150.272 34.1804C150.652 34.5452 151.101 34.8281 151.591 35.0122C152.155 35.2147 152.736 35.3665 153.326 35.4657C154.052 35.5888 154.788 35.6341 155.523 35.6009C157.507 35.4583 159.368 34.5772 160.752 33.1264C161.042 32.8766 161.243 32.5368 161.324 32.1594C161.22 31.9008 161.031 31.6864 160.79 31.5517V31.5553ZM132.533 25.887C132.768 23.8177 133.412 19.3639 134.467 12.5258V12.4351L134.335 12.2999H125.5L125.279 12.5721L123.786 24.9437C123.649 26.0689 123.258 27.1467 122.643 28.093C121.911 29.2631 121.15 29.7729 120.358 29.6223C119.567 29.4718 119.259 28.6019 119.436 27.0127L120.49 18.2857C120.646 17.4112 120.61 16.5126 120.386 15.6536C120.162 14.7947 119.755 13.9962 119.194 13.315C118.637 12.6939 117.953 12.2048 117.19 11.8822C116.427 11.5596 115.603 11.4115 114.778 11.4482C113.559 11.4616 112.366 11.8115 111.327 12.4605C110.388 12.944 109.615 13.7048 109.109 14.6429C109.062 14.7225 109.046 14.8165 109.062 14.9076C109.078 14.9986 109.127 15.0805 109.198 15.1382C109.402 15.292 109.623 15.4205 109.858 15.521C110.204 15.7068 110.493 15.9873 110.692 16.331C111.005 16.8833 111.2 17.4965 111.264 18.1306C111.379 19.2457 111.364 20.3707 111.219 21.4823L110.384 28.5003C110.05 30.3646 110.453 32.2877 111.505 33.852C111.955 34.5062 112.557 35.0373 113.258 35.3982C113.958 35.7592 114.736 35.9388 115.521 35.9211C116.957 35.8859 118.355 35.4504 119.564 34.6621C121.083 33.6742 122.349 32.3324 123.256 30.748C123.292 32.1815 123.875 33.5446 124.881 34.5496C125.903 35.4852 127.243 35.9778 128.617 35.922C129.836 35.9083 131.029 35.5584 132.068 34.9097C133.006 34.4263 133.78 33.666 134.286 32.7282C134.316 32.6801 134.336 32.6263 134.345 32.5701C134.353 32.5138 134.35 32.4564 134.336 32.4015C134.321 32.3465 134.296 32.2952 134.261 32.2507C134.226 32.2062 134.182 32.1696 134.133 32.1431C133.913 31.9934 133.634 31.7903 133.297 31.5354C132.854 31.0641 132.583 30.4532 132.528 29.8038C132.349 28.5032 132.351 27.1835 132.533 25.8834V25.887ZM105.332 1.27534C105.109 1.39363 104.896 1.52919 104.695 1.6808C104.285 1.95977 103.859 2.21506 103.421 2.44547C102.777 2.74855 102.097 2.96768 101.399 3.09766C100.438 3.29829 99.457 3.38112 98.4768 3.34438C96.4598 3.23966 94.4575 2.93833 92.4972 2.44456C90.2763 1.91181 88.0105 1.59562 85.7305 1.50029H84.7194C80.8228 1.62124 77.9518 3.03084 76.1061 5.72908C75.169 7.10844 74.7737 8.26315 74.9201 9.1932C74.979 9.52338 75.1244 9.65853 75.3591 9.59776C75.6688 9.43476 75.9694 9.25458 76.2596 9.05805C77.0116 8.62187 77.8171 8.28881 78.655 8.06752C79.8295 7.74737 81.0421 7.59473 82.2579 7.61398C84.2463 7.67836 86.2247 7.92671 88.1688 8.35597C90.2782 8.79377 92.4142 9.08682 94.5624 9.23311C99.5727 9.35406 103.015 8.10925 104.89 5.49868C105.315 5.00641 105.627 4.42367 105.801 3.79318C105.976 3.1627 106.01 2.50044 105.9 1.85496C105.786 1.34821 105.596 1.155 105.332 1.27534ZM104.936 25.838L105.771 18.82C105.951 17.9 105.948 16.9529 105.763 16.0339C105.578 15.115 105.215 14.2428 104.695 13.4682C104.237 12.8096 103.627 12.2761 102.918 11.9151C102.209 11.5542 101.423 11.3769 100.63 11.3992C99.1701 11.4434 97.7499 11.8946 96.5249 12.7036C94.9723 13.7152 93.6953 15.1077 92.8114 16.7528C92.7445 15.2889 92.1594 13.8989 91.1639 12.8387C90.7012 12.3674 90.1489 11.9966 89.5407 11.7492C88.9325 11.5017 88.2811 11.3826 87.6261 11.3992C86.1917 11.4429 84.7952 11.8781 83.5833 12.6591C82.0505 13.63 80.7815 14.9757 79.892 16.5732C79.8562 15.1434 79.2811 13.7824 78.2856 12.7716C77.2599 11.8291 75.9096 11.3362 74.5282 11.4001C73.3027 11.4151 72.1036 11.7648 71.0565 12.4124C70.114 12.8808 69.344 13.6437 68.8593 14.5894C68.8292 14.6374 68.8092 14.6912 68.8006 14.7475C68.7921 14.8037 68.7951 14.8612 68.8095 14.9162C68.824 14.9712 68.8495 15.0226 68.8845 15.067C68.9195 15.1115 68.9632 15.1481 69.0128 15.1745C69.2323 15.3244 69.5108 15.527 69.8482 15.7822C70.2877 16.2536 70.5518 16.8659 70.5951 17.5138C70.7577 18.8138 70.7502 20.1299 70.5728 21.4278C70.3384 23.4966 69.7086 27.9503 68.6835 34.789V34.8798L68.8138 35.0131H77.6492C77.7065 34.9847 77.7587 34.9466 77.8036 34.9006C77.8245 34.8804 77.8412 34.8561 77.8525 34.8291C77.8639 34.8021 77.8697 34.773 77.8697 34.7437L79.3181 22.6887C79.4607 21.4665 79.8496 20.2872 80.4605 19.2245C81.2221 18.055 81.9839 17.5452 82.7461 17.6952C83.5957 17.8452 83.9176 18.7151 83.7118 20.3049C83.6523 21.0844 83.5353 22.149 83.361 23.4987C83.0968 25.4483 82.6574 29.2124 82.0428 34.7909C82.0358 34.7961 82.0301 34.8029 82.0262 34.8108C82.0223 34.8187 82.0202 34.8274 82.0202 34.8362C82.0202 34.8451 82.0223 34.8538 82.0262 34.8616C82.0301 34.8695 82.0358 34.8764 82.0428 34.8816L82.174 35.0131H91.0095C91.0667 34.9846 91.1189 34.9466 91.1639 34.9006C91.1848 34.8804 91.2014 34.8561 91.2128 34.8291C91.2242 34.8021 91.23 34.773 91.2299 34.7437L92.2402 23.496L92.3294 22.6859C92.4358 21.4556 92.8276 20.2685 93.4727 19.2218C94.2337 18.0523 94.9952 17.5425 95.7574 17.6925C96.607 17.8425 96.9295 18.7124 96.7249 20.3022L95.67 29.0291C95.5139 29.9037 95.5491 30.8025 95.773 31.6617C95.997 32.5209 96.4042 33.3195 96.9658 34.0008C97.5155 34.6188 98.1922 35.1064 98.9479 35.429C99.7036 35.7516 100.52 35.9013 101.339 35.8676C102.564 35.8521 103.763 35.5025 104.811 34.8553C105.743 34.392 106.511 33.6451 107.007 32.7182C107.066 32.6426 107.094 32.547 107.086 32.4509C107.078 32.3547 107.034 32.2654 106.963 32.2012C106.765 32.0332 106.542 31.8965 106.304 31.7957C105.957 31.6099 105.668 31.3298 105.469 30.9866C105.155 30.4332 104.953 29.8212 104.876 29.187C104.746 28.073 104.766 26.9463 104.936 25.838ZM51.4561 23.4089C51.6254 21.6399 52.149 19.9248 52.9947 18.3692C53.2604 17.8014 53.6866 17.327 54.2188 17.0066C54.7511 16.6863 55.3652 16.5344 55.9827 16.5704C56.5745 16.6185 57.1353 16.8587 57.5824 17.2556C58.0295 17.6526 58.3392 18.1851 58.4656 18.7746C58.939 20.4549 59.0366 22.2214 58.7512 23.945C58.5939 25.7261 58.0774 27.4552 57.234 29.0246C56.9671 29.5834 56.5425 30.0487 56.0142 30.3612C55.486 30.6736 54.8782 30.819 54.2683 30.7789C53.6737 30.7285 53.111 30.4847 52.6635 30.0836C52.2161 29.6824 51.9079 29.1453 51.7846 28.552C51.312 26.8817 51.2 25.1273 51.4561 23.4089ZM67.4081 24.5817C67.64 23.0117 67.5405 21.4095 67.1163 19.8815C66.692 18.3536 65.9528 16.9349 64.9476 15.7196C63.9213 14.4672 62.6478 13.4476 61.2095 12.7269C59.7712 12.0061 58.2 11.6001 56.5976 11.5353C53.2704 11.245 49.9642 12.2953 47.3918 14.4597C46.121 15.4676 45.0604 16.7228 44.2721 18.1518C43.4837 19.5809 42.9833 21.1552 42.8001 22.783C42.5681 24.3546 42.6695 25.9585 43.0976 27.487C43.5257 29.0155 44.2705 30.4333 45.282 31.6451C46.3138 32.8966 47.5914 33.9152 49.033 34.6358C50.4745 35.3563 52.0483 35.7629 53.6534 35.8295C56.9932 36.143 60.3192 35.0993 62.9038 32.9268C64.1578 31.9053 65.201 30.6423 65.974 29.2104C66.7469 27.7784 67.2343 26.2055 67.4081 24.5817ZM41.5265 30.2963C40.2576 29.7799 39.1005 29.0156 38.1209 28.0468C37.2135 27.1877 36.4293 26.2032 35.7915 25.1223C35.2421 24.1463 34.7789 23.1228 34.4073 22.0637C34.1193 21.2931 33.8773 20.5055 33.6826 19.7053C33.5791 19.207 33.5127 18.8369 33.4836 18.595C38.1417 16.2554 40.7343 12.9564 41.2615 8.69794C41.4012 7.84327 41.3706 6.96876 41.1713 6.12638C40.9719 5.28399 40.6081 4.49092 40.1012 3.79429C39.6088 3.1313 38.9647 2.6004 38.2247 2.2476C37.4848 1.89481 36.6713 1.73077 35.8549 1.7697C34.9125 1.77688 33.9803 1.9678 33.1087 2.33208C32.3395 2.61497 31.6256 3.03383 30.9998 3.56934C30.5161 4.01924 30.3623 4.34912 30.5384 4.55895C31.2588 5.57356 31.6432 6.7946 31.6362 8.04575C31.6741 9.36217 31.4422 10.6722 30.9552 11.8927C30.4805 13.0802 29.7448 14.1417 28.8044 14.9958C27.9591 15.8219 26.8354 16.2888 25.6629 16.301L27.2452 3.16478C27.2609 3.1372 27.2691 3.10592 27.2691 3.07407C27.2691 3.04223 27.2609 3.01094 27.2452 2.98336L27.1087 2.93892H27.0676L26.9784 2.89447C26.2162 2.59211 25.286 2.2695 24.1876 1.92662C23.0893 1.58375 21.3755 1.17889 19.0461 0.712047C16.8904 0.266125 14.6986 0.0253148 12.499 -0.00726318C10.3553 -0.00168357 8.23152 0.410218 6.2365 1.20731C4.2178 1.93765 2.47915 3.30013 1.2708 5.09866C0.568319 6.15033 0.138543 7.36528 0.0213389 8.63081C-0.108528 9.9486 0.0878216 11.2785 0.592522 12.4995C1.09948 13.7673 1.96314 14.8549 3.07537 15.6262C4.05024 16.3254 5.17033 16.7872 6.34895 16.9759C7.39371 17.1615 8.46558 17.1157 9.49133 16.8417C10.3424 16.6078 11.1616 16.2678 11.9305 15.8294C12.524 15.5036 13.053 15.0687 13.4905 14.5468C13.8125 14.1757 14.0524 13.7386 14.1938 13.2651C14.2333 13.1546 14.2419 13.0351 14.2186 12.92C14.1953 12.8048 14.1409 12.6985 14.0617 12.6129C13.9153 12.4919 13.6663 12.312 13.3147 12.0732C12.9896 11.8579 12.7067 11.5833 12.4802 11.2631C12.1985 11.0098 11.98 10.6921 11.8425 10.3362C11.705 9.98031 11.6526 9.59637 11.6895 9.21588C11.7792 8.47693 12.0512 7.77301 12.4802 7.16951C13.0022 6.48058 13.725 5.97678 14.5454 5.72999C15.5374 5.39617 16.5984 5.3336 17.6217 5.54857C17.5926 5.85093 16.9628 10.4165 15.7324 19.2454C14.502 28.0743 13.8124 33.2561 13.6636 34.7909C13.648 34.8184 13.6397 34.8497 13.6397 34.8816C13.6397 34.9134 13.648 34.9447 13.6636 34.9723L13.7957 35.0176H23.1568C23.1889 35.0208 23.2213 35.0174 23.2522 35.0078C23.283 34.9982 23.3117 34.9825 23.3366 34.9616C23.3615 34.9407 23.382 34.915 23.3971 34.886C23.4122 34.857 23.4215 34.8253 23.4246 34.7927L25.0498 21.1167C25.753 21.0272 26.1633 20.9667 26.2805 20.9353C26.3679 23.4551 26.4572 25.0147 26.5482 25.614C26.929 29.1528 27.881 31.8368 29.4041 33.6661C30.9273 35.4954 33.1831 36.2452 36.1717 35.9156C37.4226 35.7696 38.5938 35.2174 39.5113 34.341C40.3453 33.626 41.0066 32.7261 41.4444 31.7104C41.7639 30.8548 41.7907 30.3819 41.5247 30.2918L41.5265 30.2963Z" fill="#F6A6BF"/>
</g>
<defs>
<clipPath id="clip0_23_374">
<rect width="187" height="36" fill="white"/>
</clipPath>
</defs>
</svg>
