<svg width="196" height="196" viewBox="0 0 196 196" fill="none" xmlns="http://www.w3.org/2000/svg">
<path d="M176.55 60.0562C174.328 58.7563 172.478 56.908 171.176 54.6881C169.873 52.4682 169.163 49.9511 169.112 47.378C169.036 43.802 167.688 40.3702 165.31 37.6979C162.933 35.0256 159.681 33.2876 156.138 32.7955C153.588 32.4441 151.171 31.4431 149.119 29.8884C147.067 28.3338 145.449 26.2777 144.42 23.9176C142.986 20.6363 140.427 17.9745 137.205 16.4111C133.983 14.8478 130.309 14.4854 126.844 15.3892C124.347 16.0403 121.725 16.0388 119.23 15.385C116.734 14.7312 114.448 13.4469 112.591 11.6555C110.009 9.17271 106.626 7.69245 103.051 7.48078C99.4751 7.26911 95.9411 8.33993 93.0843 10.5007C91.0324 12.0525 88.6173 13.0529 86.0691 13.4065C83.5209 13.7601 80.9246 13.4551 78.5277 12.5207C75.1938 11.207 71.4998 11.1299 68.114 12.3034C64.7282 13.4768 61.8742 15.8233 60.0682 18.9184C58.7658 21.137 56.9166 22.9849 54.697 24.2856C52.4774 25.5864 49.9615 26.2966 47.3893 26.3486C43.8084 26.4172 40.3696 27.762 37.6921 30.1408C35.0147 32.5197 33.2746 35.7764 32.7851 39.3244C32.4367 41.8789 31.4374 44.301 29.8832 46.3581C28.3291 48.4152 26.2722 50.0382 23.9101 51.0714C20.6283 52.5075 17.9665 55.0673 16.4033 58.2905C14.8401 61.5137 14.4781 65.1889 15.3823 68.6551C16.0348 71.1515 16.0341 73.7738 15.3802 76.2699C14.7263 78.7659 13.4412 81.0518 11.6486 82.9076C9.1671 85.4904 7.68828 88.8737 7.47794 92.4492C7.2676 96.0247 8.33955 99.558 10.5011 102.414C12.0504 104.456 13.0526 106.86 13.4128 109.398C13.7731 111.935 13.4794 114.523 12.5596 116.916C11.2515 120.252 11.175 123.945 12.3439 127.332C13.5128 130.72 15.8505 133.58 18.9377 135.399C21.1582 136.699 23.0076 138.548 24.3086 140.768C25.6096 142.988 26.3187 145.505 26.3679 148.078C26.4392 151.659 27.7848 155.097 30.1632 157.775C32.5416 160.453 35.7969 162.196 39.3444 162.689C41.8944 163.038 44.3121 164.036 46.3652 165.588C48.4182 167.14 50.0378 169.194 51.0683 171.552C52.5029 174.833 55.0613 177.495 58.2833 179.058C61.5053 180.622 65.1794 180.984 68.6447 180.08C71.1412 179.429 73.7632 179.431 76.259 180.085C78.7547 180.738 81.0406 182.023 82.8973 183.814C85.4809 186.294 88.8645 187.772 92.4398 187.981C96.0152 188.19 99.5478 187.117 102.403 184.954C103.666 183.998 105.074 183.249 106.574 182.736C109.957 181.562 113.647 181.634 116.982 182.94C120.317 184.245 124.009 184.317 127.393 183.143C130.777 181.969 133.63 179.625 135.441 176.535C136.743 174.316 138.592 172.468 140.812 171.167C143.032 169.867 145.547 169.156 148.12 169.104C151.701 169.039 155.142 167.695 157.82 165.316C160.498 162.936 162.237 159.678 162.724 156.129C163.078 153.579 164.08 151.163 165.634 149.112C167.189 147.06 169.243 145.441 171.602 144.411C174.881 142.971 177.54 140.411 179.102 137.188C180.665 133.966 181.029 130.293 180.129 126.827C179.481 124.336 179.484 121.72 180.139 119.23C180.793 116.74 182.077 114.461 183.867 112.611C186.349 110.029 187.83 106.646 188.041 103.07C188.253 99.4943 187.182 95.9604 185.021 93.1036C183.468 91.0521 182.468 88.6358 182.116 86.0866C181.765 83.5374 182.075 80.9406 183.016 78.5455C184.318 75.1987 184.382 71.4968 183.196 68.1069C182.011 64.7171 179.654 61.862 176.55 60.0562ZM122.726 169.742C108.484 174.679 93.0982 175.282 78.5136 171.475C63.929 167.668 50.801 159.621 40.7895 148.353C30.778 137.084 24.3328 123.1 22.2688 108.169C20.2049 93.2377 22.615 78.0296 29.1942 64.468C35.7735 50.9063 46.2266 39.6002 59.2315 31.9793C72.2364 24.3584 87.2091 20.7651 102.256 21.6536C117.303 22.5422 131.749 27.8728 143.767 36.9713C155.784 46.0698 164.834 58.5276 169.771 72.7693C176.368 91.8682 175.12 112.804 166.3 130.983C157.481 149.163 141.81 163.102 122.726 169.742Z" fill="#F6A6BF"/>
<circle cx="97.7281" cy="97.7339" r="71.3082" transform="rotate(-5.54496 97.7281 97.7339)" fill="#F6A6BF"/>
<path d="M54.2909 121.477L50.4661 122.614L52.1725 128.357L50.4949 128.856L48.366 121.689L53.8683 120.055L54.2909 121.477ZM57.736 118.818C58.7917 118.505 59.6727 118.52 60.3789 118.866C61.0914 119.199 61.5991 119.876 61.9021 120.896L63.15 125.096L61.5664 125.567L61.3073 124.695C61.1945 125.069 60.971 125.398 60.6368 125.682C60.3089 125.955 59.8765 126.171 59.3397 126.331C58.8029 126.49 58.3066 126.54 57.8508 126.481C57.3924 126.413 57.0035 126.251 56.6841 125.995C56.3711 125.728 56.1534 125.388 56.0312 124.977C55.8398 124.333 55.9241 123.748 56.284 123.222C56.6501 122.685 57.3477 122.263 58.3766 121.958L60.2286 121.408L60.1967 121.3C60.0479 120.799 59.7815 120.46 59.3975 120.282C59.0226 120.101 58.5398 120.098 57.9493 120.274C57.5467 120.393 57.1672 120.574 56.8107 120.816C56.4632 121.056 56.1885 121.327 55.9865 121.631L54.9661 120.605C55.2568 120.207 55.6436 119.854 56.1262 119.545C56.6089 119.236 57.1455 118.994 57.736 118.818ZM59.3258 125.006C59.7463 124.881 60.0897 124.677 60.356 124.393C60.6285 124.098 60.7788 123.751 60.8067 123.354L60.5595 122.522L58.8283 123.036C57.862 123.323 57.4732 123.784 57.6619 124.419C57.7523 124.723 57.9448 124.929 58.2396 125.036C58.5343 125.143 58.8964 125.133 59.3258 125.006ZM67.0454 116.053C67.7433 115.845 68.4103 115.813 69.0464 115.955C69.6915 116.094 70.253 116.395 70.7309 116.856C71.2088 117.318 71.5554 117.911 71.7707 118.636C71.986 119.361 72.0208 120.051 71.8751 120.708C71.7268 121.356 71.4204 121.914 70.9561 122.383C70.5007 122.85 69.924 123.186 69.2262 123.394C68.2599 123.681 67.3993 123.586 66.6443 123.109L67.6768 126.585L65.9993 127.083L63.0969 117.313L64.6939 116.839L64.973 117.778C65.1494 117.356 65.4136 117 65.7657 116.71C66.1268 116.418 66.5533 116.199 67.0454 116.053ZM68.6117 122.013C69.229 121.83 69.6734 121.474 69.9448 120.946C70.2252 120.414 70.2657 119.813 70.0663 119.142C69.867 118.471 69.5049 117.99 68.98 117.698C68.4641 117.403 67.8975 117.348 67.2801 117.531C66.8775 117.651 66.5431 117.852 66.2768 118.136C66.0079 118.41 65.83 118.746 65.7431 119.141C65.6562 119.537 65.6792 119.959 65.8121 120.406C65.945 120.854 66.1559 121.219 66.4448 121.503C66.7336 121.788 67.067 121.976 67.4449 122.068C67.8202 122.151 68.2091 122.133 68.6117 122.013ZM74.9308 113.71C75.9866 113.397 76.8675 113.412 77.5737 113.758C78.2862 114.091 78.794 114.768 79.097 115.788L80.3448 119.988L78.7612 120.459L78.5021 119.587C78.3893 119.961 78.1658 120.29 77.8316 120.574C77.5037 120.847 77.0713 121.063 76.5345 121.223C75.9977 121.382 75.5014 121.432 75.0456 121.373C74.5872 121.304 74.1983 121.143 73.879 120.887C73.5659 120.62 73.3482 120.28 73.226 119.869C73.0346 119.224 73.1189 118.64 73.4788 118.114C73.845 117.577 74.5425 117.155 75.5714 116.85L77.4234 116.3L77.3915 116.192C77.2427 115.691 76.9763 115.352 76.5924 115.174C76.2174 114.993 75.7346 114.99 75.1441 115.166C74.7415 115.285 74.362 115.466 74.0055 115.708C73.658 115.948 73.3833 116.219 73.1813 116.523L72.161 115.497C72.4517 115.099 72.8384 114.746 73.3211 114.437C73.8037 114.128 74.3403 113.886 74.9308 113.71ZM76.5206 119.898C76.9411 119.773 77.2845 119.568 77.5508 119.285C77.8234 118.99 77.9736 118.643 78.0015 118.246L77.7543 117.413L76.0231 117.928C75.0568 118.215 74.668 118.676 74.8567 119.311C74.9471 119.615 75.1397 119.821 75.4344 119.928C75.7291 120.035 76.0912 120.025 76.5206 119.898ZM80.2918 112.205L81.9693 111.707L82.8344 114.619L86.4445 113.547L85.5794 110.634L87.2569 110.136L89.3858 117.303L87.7083 117.801L86.8671 114.969L83.257 116.042L84.0982 118.873L82.4207 119.372L80.2918 112.205ZM95.6045 109.204L93.0949 109.95L94.8013 115.694L93.1237 116.192L91.4174 110.448L88.8944 111.198L88.4718 109.775L95.1819 107.782L95.6045 109.204ZM96.3988 107.42L98.0763 106.922L99.4797 111.646L102.035 105.746L103.565 105.291L105.694 112.458L104.017 112.956L102.613 108.232L100.071 114.128L98.5277 114.587L96.3988 107.42ZM109.77 103.361C110.468 103.153 111.135 103.121 111.771 103.263C112.416 103.402 112.978 103.703 113.456 104.164C113.934 104.626 114.28 105.219 114.496 105.944C114.711 106.669 114.746 107.359 114.6 108.016C114.452 108.664 114.145 109.222 113.681 109.691C113.226 110.157 112.649 110.494 111.951 110.701C110.985 110.988 110.124 110.894 109.369 110.417L110.402 113.893L108.724 114.391L105.822 104.621L107.419 104.147L107.698 105.086C107.874 104.664 108.139 104.308 108.491 104.018C108.852 103.726 109.278 103.507 109.77 103.361ZM111.337 109.321C111.954 109.138 112.398 108.782 112.67 108.253C112.95 107.722 112.991 107.121 112.791 106.45C112.592 105.779 112.23 105.298 111.705 105.006C111.189 104.711 110.622 104.655 110.005 104.839C109.602 104.958 109.268 105.16 109.002 105.444C108.733 105.718 108.555 106.053 108.468 106.449C108.381 106.845 108.404 107.267 108.537 107.714C108.67 108.161 108.881 108.527 109.17 108.811C109.459 109.095 109.792 109.284 110.17 109.376C110.545 109.459 110.934 109.441 111.337 109.321ZM120.452 108.176C119.727 108.392 119.027 108.429 118.353 108.289C117.678 108.148 117.093 107.85 116.597 107.393C116.108 106.925 115.758 106.338 115.548 105.631C115.338 104.924 115.312 104.246 115.469 103.595C115.635 102.942 115.963 102.373 116.451 101.887C116.94 101.401 117.546 101.051 118.271 100.835C119.005 100.617 119.709 100.579 120.383 100.719C121.058 100.859 121.639 101.159 122.125 101.618C122.621 102.074 122.974 102.656 123.184 103.363C123.394 104.07 123.417 104.754 123.254 105.416C123.096 106.066 122.773 106.635 122.285 107.12C121.796 107.606 121.185 107.958 120.452 108.176ZM120.025 106.74C120.642 106.557 121.091 106.2 121.372 105.668C121.652 105.137 121.692 104.536 121.493 103.865C121.294 103.194 120.932 102.713 120.407 102.421C119.882 102.129 119.311 102.074 118.694 102.258C118.076 102.441 117.627 102.799 117.347 103.33C117.076 103.858 117.04 104.458 117.239 105.129C117.438 105.8 117.796 106.283 118.312 106.577C118.837 106.869 119.408 106.924 120.025 106.74ZM129.991 101.18C130.957 101.185 131.57 101.626 131.83 102.503C132.021 103.147 131.927 103.716 131.548 104.208C131.168 104.701 130.504 105.088 129.556 105.369L125.906 106.454L123.777 99.2873L127.28 98.2467C128.156 97.9863 128.889 97.944 129.476 98.1199C130.064 98.2958 130.446 98.679 130.621 99.2695C130.73 99.6363 130.726 99.9832 130.609 100.31C130.501 100.634 130.295 100.924 129.991 101.18ZM126.263 101.806L128.021 101.283C128.889 101.026 129.234 100.597 129.056 99.9975C128.883 99.4159 128.363 99.254 127.495 99.5118L125.737 100.034L126.263 101.806ZM129.059 104.188C129.981 103.914 130.352 103.478 130.174 102.878C130.081 102.565 129.905 102.364 129.645 102.276C129.382 102.179 129.023 102.198 128.567 102.333L126.594 102.919L127.14 104.758L129.059 104.188ZM134.733 95.945C135.788 95.6314 136.669 95.6472 137.376 95.9924C138.088 96.326 138.596 97.0027 138.899 98.0227L140.147 102.223L138.563 102.694L138.304 101.821C138.191 102.196 137.968 102.525 137.633 102.809C137.306 103.082 136.873 103.298 136.336 103.457C135.8 103.617 135.303 103.667 134.847 103.608C134.389 103.539 134 103.377 133.681 103.122C133.368 102.854 133.15 102.515 133.028 102.104C132.836 101.459 132.921 100.874 133.281 100.349C133.647 99.8117 134.344 99.3903 135.373 99.0846L137.225 98.5344L137.193 98.4271C137.044 97.9261 136.778 97.5865 136.394 97.4085C136.019 97.2278 135.536 97.2251 134.946 97.4006C134.543 97.5202 134.164 97.7011 133.807 97.9433C133.46 98.1828 133.185 98.4543 132.983 98.7577L131.963 97.7318C132.253 97.3339 132.64 96.9804 133.123 96.6715C133.606 96.3626 134.142 96.1205 134.733 95.945ZM136.322 102.132C136.743 102.008 137.086 101.803 137.353 101.52C137.625 101.225 137.775 100.878 137.803 100.48L137.556 99.6483L135.825 100.163C134.859 100.45 134.47 100.911 134.659 101.546C134.749 101.85 134.941 102.056 135.236 102.163C135.531 102.27 135.893 102.26 136.322 102.132ZM140.094 94.4401L141.771 93.9418L142.636 96.854L146.246 95.7816L145.381 92.8693L147.059 92.371L149.188 99.5375L147.51 100.036L146.669 97.2041L143.059 98.2765L143.9 101.108L142.222 101.607L140.094 94.4401ZM153.498 93.0285C154.41 92.7574 155.169 92.7559 155.775 93.0239C156.38 93.292 156.795 93.8018 157.018 94.5533C157.252 95.3406 157.164 96.0288 156.755 96.6177C156.355 97.2039 155.665 97.6375 154.688 97.9182L151.436 98.8696L149.307 91.7031L150.985 91.2048L151.682 93.5533L153.498 93.0285ZM156.541 89.5543L158.218 89.0559L160.347 96.2224L158.669 96.7207L156.541 89.5543ZM154.173 96.7274C154.668 96.5902 155.013 96.3756 155.209 96.0838C155.404 95.792 155.441 95.4404 155.319 95.0288C155.199 94.6262 154.986 94.3682 154.68 94.2547C154.374 94.1412 153.964 94.1558 153.452 94.2983L152.025 94.7075L152.747 97.1366L154.173 96.7274Z" fill="white"/>
<path d="M42.2143 96.4711L45.005 105.865L43.2872 106.376L40.9351 98.4576L37.231 99.558L37.8482 101.93C38.1942 103.259 38.4044 104.36 38.4789 105.234C38.5508 106.098 38.4627 106.801 38.2145 107.342C37.9636 107.874 37.5071 108.239 36.8451 108.435C36.6125 108.505 36.2816 108.554 35.8524 108.584L35.5226 107.032C35.6496 107.033 35.7891 107.011 35.9412 106.966C36.487 106.804 36.776 106.367 36.8083 105.657C36.8469 104.935 36.6857 103.868 36.3248 102.456L35.3028 98.5243L42.2143 96.4711ZM51.8562 95.9435C52.572 95.7309 53.2582 95.6974 53.9149 95.8431C54.5689 95.9799 55.1407 96.2823 55.6302 96.7502C56.1171 97.2093 56.4655 97.7922 56.6754 98.499C56.8854 99.2058 56.9131 99.8889 56.7584 100.548C56.6011 101.199 56.2872 101.764 55.8165 102.245C55.3459 102.725 54.7527 103.072 54.037 103.284C53.4107 103.471 52.8022 103.52 52.2115 103.432C51.6182 103.336 51.0851 103.115 50.6122 102.768C50.1367 102.413 49.7633 101.959 49.4921 101.407L48.2843 101.766L49.1375 104.638L47.4599 105.136L45.331 97.9696L47.0085 97.4712L47.8338 100.249L49.0685 99.8825C49.0084 99.2869 49.0846 98.7239 49.297 98.1935C49.5067 97.6541 49.832 97.1923 50.2729 96.8082C50.7111 96.4152 51.2389 96.1269 51.8562 95.9435ZM53.6144 101.862C54.008 101.745 54.3349 101.551 54.5948 101.279C54.8522 100.998 55.0198 100.661 55.0977 100.267C55.173 99.8654 55.1442 99.4407 55.0113 98.9933C54.8093 98.3134 54.4517 97.8306 53.9384 97.5449C53.4315 97.2476 52.8782 97.188 52.2788 97.3661C51.6794 97.5442 51.2484 97.8961 50.986 98.422C50.7208 98.9389 50.6893 99.5373 50.8913 100.217C51.0933 100.897 51.4478 101.386 51.9547 101.683C52.4707 101.978 53.0239 102.037 53.6144 101.862ZM61.2394 93.6234C61.9194 93.4214 62.5627 93.391 63.1693 93.5321C63.7733 93.6642 64.2955 93.9472 64.736 94.3811C65.1854 94.8123 65.5097 95.3634 65.7091 96.0345C65.9137 96.7234 65.9347 97.3841 65.7721 98.0166C65.6068 98.6401 65.2773 99.1859 64.7834 99.6539C64.2896 100.122 63.6714 100.466 62.9288 100.687C61.6852 101.056 60.6011 100.93 59.6766 100.309C58.7521 99.6882 58.06 98.6037 57.6002 97.0559C57.1723 95.6154 57.1421 94.383 57.5096 93.3586C57.8771 92.3342 58.6562 91.4991 59.8469 90.8533L62.9639 89.1533L63.652 90.5846L60.8158 92.099C60.0011 92.5357 59.4428 93.0326 59.1409 93.5896C58.839 94.1467 58.7679 94.825 58.9276 95.6246C59.1354 95.1442 59.4369 94.7334 59.832 94.392C60.2245 94.0418 60.6937 93.7856 61.2394 93.6234ZM62.5664 99.3194C63.1837 99.136 63.6218 98.7917 63.8806 98.2864C64.1457 97.7695 64.1866 97.2024 64.0032 96.585C63.8198 95.9677 63.48 95.5283 62.9836 95.2668C62.4962 95.0027 61.9438 94.9623 61.3265 95.1457C60.7002 95.3317 60.2505 95.6698 59.9775 96.1598C59.7044 96.6499 59.6595 97.2036 59.8429 97.8209C60.029 98.4472 60.3728 98.9 60.8745 99.1794C61.3851 99.4561 61.9491 99.5028 62.5664 99.3194ZM71.5594 98.0791C70.8347 98.2944 70.1351 98.3319 69.4605 98.1915C68.786 98.0511 68.2008 97.7527 67.7049 97.2963C67.2154 96.8284 66.8657 96.241 66.6557 95.5342C66.4457 94.8274 66.4194 94.1488 66.5767 93.4984C66.7429 92.8453 67.0703 92.2759 67.5588 91.79C68.0474 91.3041 68.654 90.9535 69.3787 90.7382C70.1123 90.5202 70.8164 90.4815 71.491 90.6218C72.1656 90.7622 72.7463 91.0619 73.2332 91.521C73.729 91.9773 74.0819 92.5589 74.2919 93.2657C74.5018 93.9725 74.525 94.6569 74.3614 95.3189C74.2041 95.9693 73.8812 96.5375 73.3927 97.0234C72.9042 97.5093 72.2931 97.8612 71.5594 98.0791ZM71.1328 96.6431C71.7502 96.4598 72.199 96.1025 72.4794 95.5713C72.7597 95.0402 72.8002 94.4391 72.6009 93.768C72.4016 93.097 72.0395 92.6155 71.5146 92.3236C70.9897 92.0316 70.4186 91.9774 69.8013 92.1607C69.1839 92.3441 68.7351 92.7014 68.4547 93.2326C68.1833 93.7611 68.1473 94.3608 68.3466 95.0318C68.546 95.7029 68.9036 96.1857 69.4195 96.4803C69.9444 96.7722 70.5155 96.8265 71.1328 96.6431ZM81.0989 91.0829C82.0644 91.0882 82.6773 91.5292 82.9378 92.406C83.1292 93.0502 83.0351 93.6185 82.6556 94.111C82.2762 94.6034 81.6122 94.9905 80.6639 95.2723L77.0135 96.3567L74.8846 89.1902L78.3873 88.1496C79.2641 87.8892 79.9964 87.8469 80.5842 88.0228C81.1719 88.1987 81.5535 88.5819 81.7289 89.1724C81.8379 89.5392 81.8338 89.8861 81.7167 90.213C81.6086 90.5372 81.4026 90.8272 81.0989 91.0829ZM77.3707 91.7085L79.1287 91.1862C79.9966 90.9284 80.3415 90.4998 80.1634 89.9004C79.9906 89.3188 79.4703 89.1569 78.6025 89.4147L76.8444 89.937L77.3707 91.7085ZM80.1669 94.0909C81.0884 93.8171 81.4601 93.3805 81.2821 92.7811C81.189 92.4679 81.0126 92.2672 80.7527 92.1789C80.4901 92.0816 80.1307 92.1008 79.6744 92.2363L77.7016 92.8224L78.2478 94.661L80.1669 94.0909ZM87.492 88.0154C88.4046 87.7443 89.1636 87.7427 89.769 88.0108C90.3833 88.2761 90.8021 88.7846 91.0254 89.5361C91.2593 90.3235 91.1716 91.0116 90.7623 91.6005C90.3531 92.1894 89.6596 92.6243 88.6817 92.905L85.3226 93.8883L83.1937 86.7218L84.8712 86.2235L85.5689 88.572L87.492 88.0154ZM88.1673 91.7142C88.662 91.577 89.0072 91.3625 89.2029 91.0707C89.3986 90.7789 89.4353 90.4272 89.313 90.0156C89.1934 89.613 88.9804 89.355 88.6741 89.2415C88.3678 89.128 87.9583 89.1426 87.4457 89.2851L85.9118 89.7262L86.6334 92.1553L88.1673 91.7142ZM94.8054 83.2724L96.483 82.774L97.8863 87.498L100.442 81.5979L101.972 81.1434L104.101 88.3099L102.423 88.8082L101.02 84.0843L98.4777 89.9803L96.9344 90.4388L94.8054 83.2724ZM113.239 81.5351C113.724 81.5275 114.129 81.6309 114.456 81.8455C114.789 82.0484 115.014 82.3467 115.131 82.7404C115.261 83.1788 115.229 83.6118 115.035 84.0395C114.838 84.4582 114.508 84.8386 114.045 85.1807C113.582 85.5227 113.019 85.7921 112.357 85.9887C111.802 86.1535 111.242 86.2517 110.677 86.2833C110.109 86.3059 109.575 86.2602 109.074 86.1462L109.186 84.7546C109.594 84.8477 110.032 84.8829 110.503 84.86C110.973 84.8371 111.427 84.7606 111.866 84.6304C112.429 84.4629 112.843 84.2477 113.105 83.9847C113.374 83.7101 113.463 83.4206 113.373 83.1165C113.291 82.8391 113.102 82.6616 112.806 82.5839C112.519 82.5036 112.152 82.5298 111.705 82.6627L110.309 83.0774L109.974 81.9501L111.236 81.5753C111.656 81.4504 111.961 81.2818 112.152 81.0695C112.351 80.8546 112.412 80.6174 112.335 80.358C112.257 80.0985 112.053 79.9353 111.722 79.8682C111.39 79.8012 110.974 79.8421 110.473 79.9909C109.757 80.2035 109.053 80.6026 108.36 81.1881L107.564 80.081C108.373 79.3635 109.257 78.8626 110.214 78.5782C110.822 78.3974 111.393 78.3203 111.927 78.3468C112.458 78.3643 112.903 78.4853 113.262 78.7098C113.627 78.9226 113.866 79.2214 113.981 79.6061C114.084 79.955 114.07 80.3001 113.938 80.6412C113.803 80.9734 113.57 81.2714 113.239 81.5351ZM118.015 76.2899C119.071 75.9762 119.952 75.992 120.658 76.3372C121.371 76.6708 121.878 77.3476 122.181 78.3675L123.429 82.5681L121.846 83.0385L121.586 82.1662C121.474 82.5405 121.25 82.8697 120.916 83.154C120.588 83.4267 120.156 83.6428 119.619 83.8022C119.082 83.9617 118.586 84.0118 118.13 83.9524C117.672 83.8842 117.283 83.7222 116.963 83.4665C116.65 83.1993 116.433 82.8599 116.31 82.4483C116.119 81.8042 116.203 81.2193 116.563 80.6937C116.929 80.1565 117.627 79.7351 118.656 79.4294L120.508 78.8793L120.476 78.7719C120.327 78.2709 120.061 77.9314 119.677 77.7533C119.302 77.5726 118.819 77.57 118.229 77.7454C117.826 77.865 117.446 78.0459 117.09 78.2881C116.742 78.5276 116.468 78.7991 116.266 79.1025L115.245 78.0766C115.536 77.6787 115.923 77.3253 116.405 77.0164C116.888 76.7075 117.425 76.4653 118.015 76.2899ZM119.605 82.4773C120.026 82.3524 120.369 82.1482 120.635 81.8646C120.908 81.5694 121.058 81.223 121.086 80.8252L120.839 79.9932L119.107 80.5075C118.141 80.7945 117.752 81.2556 117.941 81.8909C118.031 82.1951 118.224 82.4007 118.519 82.5079C118.813 82.6151 119.176 82.6049 119.605 82.4773ZM127.358 73.9817C128.038 73.7797 128.682 73.7493 129.288 73.8904C129.892 74.0225 130.414 74.3055 130.855 74.7394C131.304 75.1706 131.629 75.7217 131.828 76.3927C132.033 77.0816 132.054 77.7423 131.891 78.3748C131.726 78.9984 131.396 79.5442 130.902 80.0122C130.408 80.4802 129.79 80.8245 129.048 81.0451C127.804 81.4145 126.72 81.2887 125.795 80.6676C124.871 80.0464 124.179 78.962 123.719 77.4142C123.291 75.9737 123.261 74.7413 123.628 73.7169C123.996 72.6925 124.775 71.8574 125.966 71.2116L129.083 69.5116L129.771 70.9429L126.935 72.4572C126.12 72.894 125.562 73.3909 125.26 73.9479C124.958 74.5049 124.887 75.1833 125.046 75.9829C125.254 75.5025 125.556 75.0916 125.951 74.7503C126.343 74.4 126.812 74.1438 127.358 73.9817ZM128.685 79.6777C129.303 79.4943 129.741 79.1499 129.999 78.6446C130.265 78.1277 130.305 77.5606 130.122 76.9433C129.939 76.3259 129.599 75.8865 129.102 75.6251C128.615 75.3609 128.063 75.3205 127.445 75.5039C126.819 75.69 126.369 76.028 126.096 76.5181C125.823 77.0081 125.778 77.5618 125.962 78.1792C126.148 78.8055 126.492 79.2583 126.993 79.5377C127.504 79.8144 128.068 79.8611 128.685 79.6777ZM137.678 78.4374C136.954 78.6527 136.254 78.6901 135.579 78.5497C134.905 78.4094 134.32 78.111 133.824 77.6546C133.334 77.1866 132.984 76.5992 132.775 75.8924C132.565 75.1856 132.538 74.507 132.696 73.8566C132.862 73.2036 133.189 72.6341 133.678 72.1482C134.166 71.6623 134.773 71.3117 135.498 71.0964C136.231 70.8785 136.935 70.8397 137.61 70.9801C138.284 71.1205 138.865 71.4202 139.352 71.8792C139.848 72.3356 140.201 72.9172 140.411 73.624C140.621 74.3308 140.644 75.0152 140.48 75.6772C140.323 76.3276 140 76.8957 139.512 77.3816C139.023 77.8675 138.412 78.2194 137.678 78.4374ZM137.252 77.0014C137.869 76.818 138.318 76.4607 138.598 75.9296C138.879 75.3984 138.919 74.7973 138.72 74.1263C138.52 73.4553 138.158 72.9738 137.633 72.6819C137.109 72.3899 136.537 72.3356 135.92 72.519C135.303 72.7024 134.854 73.0597 134.574 73.5908C134.302 74.1193 134.266 74.7191 134.465 75.3901C134.665 76.0611 135.022 76.5439 135.538 76.8386C136.063 77.1305 136.634 77.1848 137.252 77.0014ZM146.841 69.3625L144.331 70.108L146.037 75.8519L144.36 76.3503L142.654 70.6063L140.131 71.3558L139.708 69.9333L146.418 67.9399L146.841 69.3625ZM150.282 66.7045C151.337 66.3909 152.218 66.4067 152.925 66.7519C153.637 67.0855 154.145 67.7622 154.448 68.7822L155.696 72.9828L154.112 73.4532L153.853 72.5809C153.74 72.9551 153.517 73.2844 153.182 73.5687C152.855 73.8414 152.422 74.0574 151.885 74.2169C151.349 74.3764 150.852 74.4264 150.396 74.3671C149.938 74.2988 149.549 74.1369 149.23 73.8812C148.917 73.614 148.699 73.2746 148.577 72.863C148.385 72.2188 148.47 71.634 148.83 71.1084C149.196 70.5712 149.893 70.1498 150.922 69.8441L152.774 69.294L152.742 69.1866C152.594 68.6856 152.327 68.346 151.943 68.168C151.568 67.9873 151.086 67.9846 150.495 68.1601C150.092 68.2797 149.713 68.4606 149.356 68.7028C149.009 68.9423 148.734 69.2138 148.532 69.5172L147.512 68.4913C147.803 68.0934 148.189 67.7399 148.672 67.431C149.155 67.1221 149.691 66.88 150.282 66.7045ZM151.872 72.892C152.292 72.7671 152.635 72.5628 152.902 72.2793C153.174 71.9841 153.324 71.6376 153.352 71.2399L153.105 70.4078L151.374 70.9221C150.408 71.2092 150.019 71.6703 150.208 72.3055C150.298 72.6097 150.491 72.8154 150.785 72.9226C151.08 73.0298 151.442 73.0196 151.872 72.892Z" fill="white"/>
<path d="M79.7049 44.1844L84.3984 50.2871L91.8268 47.7056L87.2991 54.0588L91.9926 60.1615L84.5008 57.9853L79.9731 64.3384L79.8707 56.6403L72.3789 54.464L79.8073 51.8826L79.7049 44.1844Z" fill="white"/>
<path d="M116.045 128.668L116.209 136.365L123.722 138.687L116.311 141.122L116.475 148.819L111.73 142.626L104.318 145.061L108.797 138.799L104.052 132.607L111.565 134.929L116.045 128.668Z" fill="white"/>
<path d="M100.46 42.2363L103.74 46.5022L108.933 44.6977L105.768 49.1387L109.049 53.4046L103.812 51.8834L100.647 56.3244L100.575 50.9432L95.3386 49.422L100.531 47.6175L100.46 42.2363Z" fill="white"/>
<path d="M62.2643 55.448L65.5451 59.714L70.7378 57.9095L67.5728 62.3505L70.8537 66.6164L65.6168 65.0952L62.4518 69.5362L62.3802 64.155L57.1432 62.6337L62.3359 60.8292L62.2643 55.448Z" fill="white"/>
<path d="M95.425 137.544L95.542 142.925L100.795 144.546L95.6142 146.25L95.7312 151.63L92.4126 147.303L87.2322 149.007L90.3615 144.628L87.0429 140.301L92.2956 141.922L95.425 137.544Z" fill="white"/>
<path d="M133.517 124.242L133.634 129.623L138.886 131.244L133.706 132.948L133.823 138.328L130.504 134.001L125.324 135.705L128.453 131.326L125.135 126.999L130.387 128.621L133.517 124.242Z" fill="white"/>
</svg>
